<?xml version="1.0" encoding="UTF-8"?>
<svg version="1.1" xmlns="http://www.w3.org/2000/svg" width="512" height="512">
<path d="M0 0 C0.66 0 1.32 0 2 0 C2.4218457 0.82387207 2.84369141 1.64774414 3.27832031 2.49658203 C13.36865687 22.23329205 13.36865687 22.23329205 23.875 41.75 C29.53870658 51.9915738 34.85910145 62.40062321 40.18597412 72.81970215 C44.68197319 81.60903753 49.21526795 90.36313167 54 99 C60.1194749 110.04641999 65.85414053 121.28729154 71.59570312 132.53320312 C72.33064055 133.97139946 73.06566499 135.40955132 73.80078125 136.84765625 C74.33144699 137.88740097 74.33144699 137.88740097 74.87283325 138.94815063 C77.73819171 144.54141186 80.72721477 150.06018954 83.77416992 155.55639648 C85 158 85 158 85 160 C91.32313624 154.88569863 96.71595989 149.07946564 102.171875 143.08203125 C104.32567198 140.71840267 106.52772331 138.42596365 108.8125 136.1875 C111.12174856 133.92276707 113.26716166 131.57854303 115.375 129.125 C117.96634205 126.1153247 120.67254783 123.28911384 123.5 120.5 C126.28621141 117.7514401 128.95308392 114.97140209 131.5 112 C134.75164628 108.20641267 138.25713094 104.72607353 141.8125 101.21875 C143.79720342 99.20569368 145.66096916 97.14553597 147.5 95 C150.75164628 91.20641267 154.25713094 87.72607353 157.8125 84.21875 C159.79720342 82.20569368 161.66096916 80.14553597 163.5 78 C166.75164628 74.20641267 170.25713094 70.72607353 173.8125 67.21875 C175.79720342 65.20569368 177.66096916 63.14553597 179.5 61 C182.75164628 57.20641267 186.25713094 53.72607353 189.8125 50.21875 C191.79720342 48.20569368 193.66096916 46.14553597 195.5 44 C198.74871552 40.20983189 202.24938167 36.7315411 205.8046875 33.23046875 C207.84417765 31.15831773 209.74331724 29.02748531 211.625 26.8125 C214.78847143 23.1156095 218.23300584 20.07509728 222 17 C221.41032516 21.79273259 220.46138529 26.22560513 219.04833984 30.84057617 C218.85054302 31.49173747 218.6527462 32.14289877 218.44895554 32.81379223 C217.79114474 34.97503477 217.12603128 37.1339574 216.4609375 39.29296875 C215.98714713 40.84471449 215.51384199 42.39660846 215.04098511 43.94863892 C214.02476778 47.28076268 213.00539445 50.61189791 211.98352051 53.94229126 C210.3532683 59.25575737 208.73015637 64.57138721 207.10839844 69.88745117 C205.42276776 75.41203388 203.73686663 80.93653215 202.04870605 86.46034241 C196.89327199 103.33109279 191.77821125 120.21392054 186.67437744 137.1003418 C185.24577617 141.82689653 183.8161381 146.55313721 182.38623047 151.27929688 C182.1509495 152.05696033 181.91566853 152.83462379 181.67325783 153.63585281 C181.19992351 155.20033351 180.72658634 156.76481334 180.25324631 158.3292923 C179.31762255 161.42181098 178.38211951 164.51436617 177.44661903 167.60692215 C174.51188627 177.30844176 171.57670416 187.00982528 168.640625 196.7109375 C168.42433189 197.42565027 168.20803879 198.14036304 167.98519135 198.87673378 C165.67032144 206.52555732 163.35333461 214.17372828 161.03027344 221.82006836 C160.42689435 223.80636504 159.82352768 225.7926655 159.2201767 227.77897072 C158.82492798 229.08012209 158.4296291 230.38125823 158.03427887 231.68237877 C155.55011188 239.85971244 153.08610903 248.04282441 150.6439209 256.23280334 C149.25992554 260.86906671 147.8665159 265.50246824 146.47143555 270.13540649 C145.83157016 272.26926267 145.19620001 274.40447276 144.56567383 276.54110718 C143.71147681 279.43462713 142.84200595 282.32312285 141.96875 285.2109375 C141.72487549 286.0522673 141.48100098 286.89359711 141.22973633 287.76042175 C140.99343506 288.53090347 140.75713379 289.30138519 140.51367188 290.09521484 C140.31640503 290.75774261 140.11913818 291.42027039 139.91589355 292.10287476 C138.56301654 294.9051405 137.56058085 296.12019692 135 298 C131.46771411 298.6193666 127.9565297 298.54335584 124.37831116 298.5146637 C122.7368883 298.52508199 122.7368883 298.52508199 121.06230539 298.53571075 C117.38255895 298.55405871 113.70345154 298.54369432 110.02368164 298.53344727 C107.39083878 298.54050176 104.75799997 298.54924478 102.12516785 298.55955505 C95.70839945 298.58121433 89.29180827 298.58106325 82.87501533 298.57292951 C77.66012805 298.56663332 72.44529252 298.56776303 67.23040581 298.57420158 C66.48859457 298.57510324 65.74678333 298.57600489 64.98249296 298.57693387 C63.47557174 298.57878505 61.96865053 298.58064761 60.46172934 298.58252143 C46.32546249 298.59910673 32.1892954 298.59037465 18.05303454 298.57353585 C5.11705983 298.55883949 -7.81868261 298.573465 -20.7546274 298.60230602 C-34.03357927 298.63169155 -47.31242391 298.6426747 -60.59140688 298.63312382 C-62.09313458 298.63210125 -63.5948623 298.63110664 -65.09659004 298.6301403 C-65.83548808 298.62966391 -66.57438612 298.62918752 -67.33567501 298.6286967 C-72.54419245 298.62653137 -77.7526085 298.63634294 -82.96110344 298.65091133 C-89.3088549 298.66841837 -95.65631022 298.66834113 -102.00404995 298.64555968 C-105.24330992 298.6344019 -108.48193901 298.63398378 -111.72119522 298.64986038 C-115.23174218 298.66570846 -118.74084951 298.65091562 -122.25132751 298.62818909 C-123.27680897 298.64002482 -124.30229043 298.65186054 -125.35884708 298.66405493 C-130.04617251 298.60218059 -132.26550918 298.55824272 -136.08693981 295.65380096 C-138.28399227 292.60604535 -139.33473105 289.98801599 -140.40576172 286.38647461 C-140.60414265 285.73560536 -140.80252357 285.08473612 -141.00691605 284.41414356 C-141.66306514 282.24779829 -142.29623486 280.07542386 -142.9296875 277.90234375 C-143.39586979 276.34716938 -143.86350719 274.79243057 -144.33248901 273.23809814 C-145.3370839 269.89763493 -146.33157961 266.55439238 -147.3182373 263.20858765 C-148.89225582 257.87110624 -150.48795321 252.54025903 -152.08691406 247.21020508 C-154.02732102 240.73646156 -155.96228204 234.26113871 -157.88999176 227.78360271 C-161.22706866 216.57043626 -164.59734663 205.36768029 -167.9921875 194.171875 C-168.23238428 193.3796265 -168.47258106 192.58737801 -168.72005653 191.77112198 C-169.68177805 188.5994086 -170.64370935 185.42775901 -171.60603046 182.25622749 C-173.99238704 174.39115689 -176.37168869 166.52395758 -178.75055885 158.65662003 C-183.67619988 142.36750206 -188.61076861 126.08109677 -193.54807091 109.79551029 C-194.99610806 105.01902279 -196.4435717 100.24236182 -197.890625 95.46557617 C-198.09029688 94.80645579 -198.28996876 94.14733541 -198.4956913 93.46824169 C-199.29218691 90.83894935 -200.08866469 88.2096516 -200.88508224 85.58033562 C-203.26055082 77.73798504 -205.63806357 69.89626019 -208.0185976 62.05544567 C-209.74008536 56.38486071 -211.45880278 50.71343854 -213.17654419 45.04171753 C-213.88622919 42.70021098 -214.59688562 40.35899861 -215.30856323 38.01809692 C-216.27594045 34.83573952 -217.239957 31.65238343 -218.203125 28.46875 C-218.6327227 27.05999855 -218.6327227 27.05999855 -219.07099915 25.62278748 C-219.32761826 24.77209183 -219.58423737 23.92139618 -219.84863281 23.04492188 C-220.072547 22.30689331 -220.29646118 21.56886475 -220.52716064 20.80847168 C-221 19 -221 19 -221 17 C-216.93235831 18.57180534 -214.49356855 21.49142887 -211.6875 24.6875 C-210.708287 25.78107364 -209.72782184 26.8735274 -208.74609375 27.96484375 C-208.03815674 28.7535083 -208.03815674 28.7535083 -207.31591797 29.55810547 C-205.6827556 31.34761511 -203.98247006 33.05681497 -202.25 34.75 C-199.91992106 37.03590682 -197.75176728 39.39862714 -195.625 41.875 C-193.03365795 44.8846753 -190.32745217 47.71088616 -187.5 50.5 C-184.0928121 53.86114482 -180.92541826 57.33701203 -177.8125 60.96875 C-175.7890712 63.23638572 -173.66346653 65.3657695 -171.5 67.5 C-168.0928121 70.86114482 -164.92541826 74.33701203 -161.8125 77.96875 C-159.7890712 80.23638572 -157.66346653 82.3657695 -155.5 84.5 C-152.0928121 87.86114482 -148.92541826 91.33701203 -145.8125 94.96875 C-143.7890712 97.23638572 -141.66346653 99.3657695 -139.5 101.5 C-136.0928121 104.86114482 -132.92541826 108.33701203 -129.8125 111.96875 C-127.7890712 114.23638572 -125.66346653 116.3657695 -123.5 118.5 C-120.0928121 121.86114482 -116.92541826 125.33701203 -113.8125 128.96875 C-111.7890712 131.23638572 -109.66346653 133.3657695 -107.5 135.5 C-104.09934397 138.85470122 -100.93605211 142.32180328 -97.83203125 145.94921875 C-95.00295774 149.11609208 -91.96132438 152.05998576 -88.91796875 155.01953125 C-87 157 -87 157 -85 160 C-78.31453923 147.92761156 -71.80643029 135.77413708 -65.5 123.5 C-61.16645211 115.06577157 -56.77678816 106.67396275 -52.1875 98.375 C-46.9251676 88.85061326 -41.95307893 79.18735023 -37 69.5 C-31.61284214 58.96366782 -26.16199403 48.48267099 -20.43041992 38.12817383 C-15.36757851 28.94332613 -10.58974414 19.61207956 -5.80981445 10.27783203 C-5.34055542 9.36371803 -5.34055542 9.36371803 -4.86181641 8.43113708 C-4.0062052 6.76379476 -3.1530517 5.09519191 -2.30004883 3.42651367 C-1 1 -1 1 0 0 Z " fill="#FFE17C" transform="translate(256,141)"/>
<path d="M0 0 C4.06764169 1.57180534 6.50643145 4.49142887 9.3125 7.6875 C10.291713 8.78107364 11.27217816 9.8735274 12.25390625 10.96484375 C12.96184326 11.7535083 12.96184326 11.7535083 13.68408203 12.55810547 C15.3172444 14.34761511 17.01752994 16.05681497 18.75 17.75 C21.08007894 20.03590682 23.24823272 22.39862714 25.375 24.875 C27.96634205 27.8846753 30.67254783 30.71088616 33.5 33.5 C36.9071879 36.86114482 40.07458174 40.33701203 43.1875 43.96875 C45.2109288 46.23638572 47.33653347 48.3657695 49.5 50.5 C52.9071879 53.86114482 56.07458174 57.33701203 59.1875 60.96875 C61.2109288 63.23638572 63.33653347 65.3657695 65.5 67.5 C68.9071879 70.86114482 72.07458174 74.33701203 75.1875 77.96875 C77.2109288 80.23638572 79.33653347 82.3657695 81.5 84.5 C84.9071879 87.86114482 88.07458174 91.33701203 91.1875 94.96875 C93.2109288 97.23638572 95.33653347 99.3657695 97.5 101.5 C100.9071879 104.86114482 104.07458174 108.33701203 107.1875 111.96875 C109.2109288 114.23638572 111.33653347 116.3657695 113.5 118.5 C116.9019628 121.85599033 120.06607016 125.32484832 123.171875 128.953125 C125.9688328 132.08476152 128.97452638 134.99621795 131.984375 137.921875 C157.53657651 164.26639284 147.31255912 209.74256437 153 246 C259.92 246.495 259.92 246.495 369 247 C360.15789474 276.84210526 360.15789474 276.84210526 356 281 C354.0389325 281.25415033 354.0389325 281.25415033 351.58241558 281.26006222 C350.18074266 281.2706606 350.18074266 281.2706606 348.7507531 281.2814731 C347.20044631 281.27785047 347.20044631 281.27785047 345.61882019 281.27415466 C344.52624714 281.27939134 343.43367408 281.28462802 342.30799276 281.29002339 C338.62220298 281.3051061 334.93655102 281.30573035 331.25073242 281.30639648 C328.61818708 281.31401243 325.98564398 281.32243894 323.35310364 281.33161926 C316.18369416 281.35449801 309.01431422 281.36239304 301.84487319 281.36744571 C297.36996439 281.37069958 292.89506422 281.3772202 288.42016029 281.3844471 C276.03551478 281.40401726 263.6508773 281.42041887 251.26621532 281.42332363 C250.47322356 281.4235112 249.6802318 281.42369877 248.86320998 281.42389202 C247.25554709 281.42425828 245.64788419 281.42462198 244.0402213 281.42498314 C242.84311571 281.42525735 242.84311571 281.42525735 241.62182617 281.42553711 C240.82278397 281.42571766 240.02374176 281.42589821 239.20048616 281.42608423 C226.251464 281.42962629 213.30260811 281.45664872 200.35364362 281.494035 C187.06573141 281.53209348 173.77790173 281.55148093 160.48993379 281.55178314 C153.02654848 281.55236829 145.56336145 281.56089703 138.10002708 281.58978081 C131.74493147 281.61426203 125.39010643 281.62159994 119.03497645 281.60653328 C115.79166311 281.59935049 112.5489971 281.6029863 109.30572128 281.62294388 C105.79071936 281.64325879 102.2771131 281.63293679 98.76213074 281.61473083 C97.22186219 281.63453079 97.22186219 281.63453079 95.65047711 281.65473074 C90.95906494 281.59902439 88.73783029 281.56042709 84.91221905 278.65464211 C82.7165248 275.60646496 81.66514609 272.98760285 80.59423828 269.38647461 C80.39585735 268.73560536 80.19747643 268.08473612 79.99308395 267.41414356 C79.33693486 265.24779829 78.70376514 263.07542386 78.0703125 260.90234375 C77.60413021 259.34716938 77.13649281 257.79243057 76.66751099 256.23809814 C75.6629161 252.89763493 74.66842039 249.55439238 73.6817627 246.20858765 C72.10774418 240.87110624 70.51204679 235.54025903 68.91308594 230.21020508 C66.97267898 223.73646156 65.03771796 217.26113871 63.11000824 210.78360271 C59.77293134 199.57043626 56.40265337 188.36768029 53.0078125 177.171875 C52.76761572 176.3796265 52.52741894 175.58737801 52.27994347 174.77112198 C51.31822195 171.5994086 50.35629065 168.42775901 49.39396954 165.25622749 C47.00761296 157.39115689 44.62831131 149.52395758 42.24944115 141.65662003 C37.32380012 125.36750206 32.38923139 109.08109677 27.45192909 92.79551029 C26.00389194 88.01902279 24.5564283 83.24236182 23.109375 78.46557617 C22.90970312 77.80645579 22.71003124 77.14733541 22.5043087 76.46824169 C21.70781309 73.83894935 20.91133531 71.2096516 20.11491776 68.58033562 C17.73944918 60.73798504 15.36193643 52.89626019 12.9814024 45.05544567 C11.25991464 39.38486071 9.54119722 33.71343854 7.82345581 28.04171753 C7.11377081 25.70021098 6.40311438 23.35899861 5.69143677 21.01809692 C4.72405955 17.83573952 3.760043 14.65238343 2.796875 11.46875 C2.3672773 10.05999855 2.3672773 10.05999855 1.92900085 8.62278748 C1.67238174 7.77209183 1.41576263 6.92139618 1.15136719 6.04492188 C0.927453 5.30689331 0.70353882 4.56886475 0.47283936 3.80847168 C0 2 0 2 0 0 Z " fill="#FFD164" transform="translate(35,158)"/>
<path d="M0 0 C25.41 0 50.82 0 77 0 C82 30 82 30 82 34 C72.95959532 34.11592622 63.91944706 34.20473108 54.87846088 34.25906086 C50.68018119 34.28513862 46.48241055 34.32050223 42.28442383 34.37719727 C38.23194068 34.43158381 34.17994667 34.46143425 30.12712669 34.47438622 C28.58212777 34.48361434 27.03715517 34.50163536 25.49236488 34.52865028 C23.32546086 34.56503239 21.16056924 34.56994204 18.9934082 34.56762695 C17.76096878 34.57873001 16.52852936 34.58983307 15.25874329 34.60127258 C11.07656262 33.82961604 9.63806913 32.26232441 7 29 C5.68212891 25.9855957 5.68212891 25.9855957 4.7265625 22.67578125 C4.37722656 21.48275391 4.02789062 20.28972656 3.66796875 19.06054688 C3.32378906 17.82369141 2.97960937 16.58683594 2.625 15.3125 C2.25761719 14.06404297 1.89023438 12.81558594 1.51171875 11.52929688 C-1.14334122 2.28668244 -1.14334122 2.28668244 0 0 Z " fill="#FFC350" transform="translate(111,405)"/>
<path d="M0 0 C5.48310998 2.51134808 8.48742611 6.22332667 11.796875 11.1875 C14.35217499 18.42751664 13.83904967 25.33947757 10.6484375 32.26171875 C7.34661357 37.65938128 2.48119272 40.40744914 -3.453125 42.3125 C-9.66665729 43.29630928 -15.18025619 42.83348947 -20.66796875 39.64453125 C-25.64385542 35.93167052 -29.24307716 31.48374398 -30.453125 25.3125 C-31.19287682 18.458237 -30.60936695 12.95917273 -26.453125 7.3125 C-18.98683942 -0.48292578 -10.71658209 -3.00337333 0 0 Z " fill="#FFE07C" transform="translate(265.453125,73.6875)"/>
<path d="M0 0 C5.00867283 2.41489583 8.71573549 5.75454339 10.79296875 11.00390625 C12.50445139 16.96816392 11.84338898 21.50563182 9 27 C5.53359639 31.55584474 1.54075428 33.84054586 -4 35 C-9.63902492 35.26903745 -14.64737941 33.5922894 -19 30 C-23.19615534 24.83550112 -23.6252182 20.39611296 -23.38671875 13.80859375 C-22.67210758 8.61863986 -20.18083215 6.0402569 -16.375 2.6875 C-11.25527798 -0.95019722 -6.13002394 -0.57769859 0 0 Z " fill="#FFE07C" transform="translate(23,107)"/>
<path d="M0 0 C5.01791684 2.41935276 8.49958655 5.9991731 11 11 C11.68243922 18.37258109 11.76668165 24.13331489 7 30 C2.64737941 33.5922894 -2.36097508 35.26903745 -8 35 C-13.54075428 33.84054586 -17.53359639 31.55584474 -21 27 C-23.77934467 21.62938661 -24.58437302 16.99915837 -22.93359375 11.14453125 C-21.05106741 6.82023433 -18.14502996 3.37043581 -14.171875 0.83203125 C-9.65061418 -0.9000345 -4.74687516 -0.51541138 0 0 Z " fill="#FFE07C" transform="translate(501,107)"/>
<path d="M0 0 C-0.15855469 0.56203125 -0.31710938 1.1240625 -0.48046875 1.703125 C-1.96422036 8.26286897 -1.63063993 14.36712274 1.73046875 20.24609375 C4.90656909 24.63399852 8.8607135 27.29950079 14 29 C16.75989419 29.27655683 16.75989419 29.27655683 19.5625 29.1875 C20.49191406 29.18105469 21.42132813 29.17460938 22.37890625 29.16796875 C24.72638102 29.01753445 26.75054544 28.66160428 29 28 C26.13337616 34.09157567 23.02433376 37.00638856 17 40 C11.11364627 41.96211791 4.39764423 42.016986 -1.3125 39.4375 C-6.38410882 36.49034333 -9.81613058 32.42155108 -12.375 27.1875 C-13.73412423 20.25596644 -13.90487412 14.10106834 -10.34765625 7.828125 C-7.92857192 4.54658451 -4.32938576 0 0 0 Z " fill="#FFD265" transform="translate(248,75)"/>
<path d="M0 0 C1.0051958 3.01558739 0.99128683 4.63814268 0.8125 7.75 C0.79048344 12.78445275 1.50465972 16.26701619 5 20 C10.78385804 24.5862592 16.89966454 24.46987514 24 24 C21.26186609 28.73907793 19.17457797 31.10928882 14 33 C7.82952584 34.39333288 3.58336922 34.06725863 -2 31 C-6.87714023 27.31504961 -9.05012705 22.95124482 -10 17 C-9.85530904 10.81962909 -7.57039754 6.77602935 -3.4375 2.3125 C-2 1 -2 1 0 0 Z " fill="#FFD264" transform="translate(487,108)"/>
<path d="M0 0 C1.0051958 3.01558739 0.99128683 4.63814268 0.8125 7.75 C0.79050359 12.77984514 1.50099677 16.2736604 5 20 C10.5639929 24.32042767 16.18284171 24.50290512 23 24 C22.05591396 27.77634415 21.09081553 28.93461282 17.875 31.25 C13.30928871 33.56594051 8.96229681 34.61988804 3.890625 33.55859375 C-1.41623365 31.81291656 -5.12215895 29.03496142 -8.109375 24.20703125 C-9.92920137 19.69737379 -9.51713351 14.76273575 -9 10 C-6.82818248 5.49548959 -4.02807558 2.9091657 0 0 Z " fill="#FFD264" transform="translate(9,108)"/>
</svg>
