<?xml version="1.0" encoding="UTF-8"?>
<svg version="1.1" xmlns="http://www.w3.org/2000/svg" width="512" height="512">
<path d="M0 0 C4.8846525 2.26787438 7.73212562 5.1153475 10 10 C10.75381535 15.5997712 10.77303575 20.33499991 8.375 25.5 C5.11053523 28.93627871 2.22729751 31.91595104 -2.69140625 32.1015625 C-3.83416016 32.05128906 -3.83416016 32.05128906 -5 32 C-4.51869629 33.05759521 -4.03739258 34.11519043 -3.54150391 35.20483398 C5.82603131 55.80015214 15.11002166 76.4270915 24.1701355 97.15963745 C30.21600484 110.99051236 36.36799533 124.77061136 42.5788269 138.52813721 C48.80319301 152.31593703 54.95187766 166.1337721 61 180 C61.66 180 62.32 180 63 180 C76.86 152.28 90.72 124.56 105 96 C102.69 95.67 100.38 95.34 98 95 C94.23699583 92.94675837 91.55446732 89.99618767 90 86 C89.33928074 80.48376242 89.26801666 75.5765795 91.625 70.5 C96.19865673 65.6856245 99.3087462 63.74843764 106 63.5 C112.6912538 63.74843764 115.80134327 65.6856245 120.375 70.5 C122.77303575 75.66500009 122.75381535 80.4002288 122 86 C119.72639329 90.89699907 116.75224074 93.47840287 112 96 C109.30859375 96.1015625 109.30859375 96.1015625 107 96 C107.25705719 96.59070786 107.51411438 97.18141571 107.77896118 97.7900238 C129.6083816 147.95976726 129.6083816 147.95976726 137.54534912 166.59378052 C138.13856983 167.98596404 138.73300564 169.37763044 139.32867432 170.76876831 C140.13817358 172.660676 140.9423108 174.5548754 141.74609375 176.44921875 C142.18622803 177.48393311 142.6263623 178.51864746 143.07983398 179.5847168 C144 182 144 182 144 184 C147.54419562 181.32954705 150.27879134 178.62217832 153 175.125 C156.69934944 170.50390631 160.57583086 166.12953102 164.625 161.8125 C165.19081787 161.20873535 165.75663574 160.6049707 166.33959961 159.98291016 C166.8888208 159.39687012 167.43804199 158.81083008 168.00390625 158.20703125 C172.38116714 153.5360668 176.5514289 148.70252459 180.69921875 143.828125 C186.51488973 137.00276261 192.41895604 130.29396202 198.5078125 123.7109375 C201.7380101 120.19721158 204.88439696 116.61537554 208 113 C206.783125 112.62875 205.56625 112.2575 204.3125 111.875 C199.18104863 109.97345153 196.45981263 106.91962527 194 102 C193.49497657 96.46957948 193.26192743 91.58969476 195.625 86.5 C200.19865673 81.6856245 203.3087462 79.74843764 210 79.5 C216.6912538 79.74843764 219.80134327 81.6856245 224.375 86.5 C226.77303575 91.66500009 226.75381535 96.4002288 226 102 C223.72954418 106.89021253 220.77054673 109.5193157 216 112 C214.00100951 112.06353759 211.99869 112.07237596 210 112 C210.00801888 112.56582983 210.01603775 113.13165966 210.02429962 113.71463585 C210.27698074 134.96669464 209.43444799 156.15674345 208.58649635 177.38733721 C208.38664237 182.41859476 208.19262195 187.45007759 207.9979248 192.48153687 C207.63008619 201.96522765 207.25716764 211.44871123 206.88232183 220.93212736 C206.45508934 231.74736208 206.03367534 242.56282123 205.61269665 253.37830091 C204.74817097 275.5857856 203.87651199 297.79298538 203 320 C204.3456604 319.97172119 204.3456604 319.97172119 205.71850586 319.94287109 C206.89292236 319.92820801 208.06733887 319.91354492 209.27734375 319.8984375 C211.02519165 319.87015869 211.02519165 319.87015869 212.80834961 319.84130859 C218.36738098 320.11770807 220.71136234 322.6435393 224.375 326.5 C226.77303575 331.66500009 226.75381535 336.4002288 226 342 C223.69126224 346.97266594 220.72996448 349.33646499 216 352 C213.30569922 352.37679986 211.02856413 352.53954012 208.34436035 352.50336456 C207.58959695 352.50917833 206.83483355 352.51499209 206.05719852 352.52098203 C203.52543761 352.53559215 200.99464464 352.52169255 198.46289062 352.50793457 C196.63057204 352.51254309 194.79825715 352.51889568 192.96595001 352.52684355 C187.92869061 352.54356667 182.89173371 352.53527691 177.85447311 352.52289867 C172.4228992 352.51386273 166.99137796 352.52781068 161.55981445 352.53881836 C150.91852394 352.55662371 140.27734615 352.5527546 129.63605118 352.5411678 C120.98921024 352.53214169 112.34240094 352.53090591 103.69555664 352.53526306 C102.46584153 352.53587599 101.23612641 352.53648893 99.96914721 352.53712043 C97.47116279 352.53839931 94.97317838 352.53969616 92.47519398 352.5410108 C69.70876201 352.55209706 46.94238761 352.54059168 24.17596543 352.51964041 C3.39071483 352.50065782 -17.39443775 352.50235632 -38.1796875 352.52148438 C-61.52942655 352.5429006 -84.87911141 352.55132381 -108.22885895 352.53903532 C-110.71775817 352.5377611 -113.2066574 352.53650361 -115.69555664 352.53526306 C-116.9202074 352.53464596 -118.14485816 352.53402886 -119.40661955 352.53339306 C-128.04510023 352.52993643 -136.68354618 352.53577525 -145.32202148 352.54518127 C-155.84654475 352.5563888 -166.37094866 352.55338741 -176.89545822 352.5320583 C-182.26731691 352.52153116 -187.63897644 352.51745446 -193.01083374 352.53065491 C-197.92577128 352.54255007 -202.84032454 352.53606372 -207.75522709 352.5147447 C-209.53575796 352.51026643 -211.31632111 352.51257226 -213.09683132 352.52224785 C-215.51313894 352.534374 -217.92812236 352.52197627 -220.34436035 352.50336456 C-221.38663867 352.51741156 -221.38663867 352.51741156 -222.44997311 352.53174233 C-227.39888548 352.455308 -230.16485028 351.05206318 -234 348 C-237.62833663 344.18069828 -238.31000458 341.11720994 -238.5 336 C-238.25208373 329.32278848 -236.30045692 326.24147085 -231.5625 321.625 C-227.68145065 319.85469679 -225.49099762 319.83026388 -221.27734375 319.8984375 C-219.51571899 319.92043213 -219.51571899 319.92043213 -217.71850586 319.94287109 C-216.82139893 319.96172363 -215.92429199 319.98057617 -215 320 C-215.03607613 319.08598734 -215.07215225 318.17197468 -215.10932159 317.23026466 C-215.99141365 294.8729224 -216.86781101 272.51536303 -217.73806 250.15755653 C-218.15905896 239.34499987 -218.58190521 228.53252164 -219.00927734 217.72021484 C-219.3822635 208.28372308 -219.75160337 198.84709644 -220.11676931 189.41029871 C-220.30980339 184.42497274 -220.50452374 179.43972695 -220.70362854 174.45463943 C-221.53430468 153.62778948 -222.29545027 132.8476344 -222 112 C-222.92554688 112.03351563 -223.85109375 112.06703125 -224.8046875 112.1015625 C-230.08761438 111.93364551 -232.84698425 109.21370079 -236.375 105.5 C-238.77303575 100.33499991 -238.75381535 95.5997712 -238 90 C-235.73212562 85.1153475 -232.8846525 82.26787438 -228 80 C-222.4002288 79.24618465 -217.66500009 79.22696425 -212.5 81.625 C-207.6856245 86.19865673 -205.74843764 89.3087462 -205.5 96 C-205.68999542 101.11720994 -206.37166337 104.18069828 -210 108 C-213.29940967 110.54329496 -215.96063235 112.12074109 -220 113 C-219.14277344 113.9178125 -218.28554687 114.835625 -217.40234375 115.78125 C-210.55347739 123.12626576 -203.80962273 130.5228148 -197.30078125 138.171875 C-191.46981787 145.01518479 -185.54591666 151.73983217 -179.4453125 158.34375 C-175.17186461 162.98583397 -171.05477532 167.75271659 -166.9765625 172.56640625 C-166.43572021 173.20271973 -165.89487793 173.8390332 -165.33764648 174.49462891 C-164.25079109 175.77428495 -163.16688835 177.05645558 -162.08618164 178.34130859 C-159.42459373 181.62553631 -159.42459373 181.62553631 -156 184 C-155.41810913 182.15365967 -155.41810913 182.15365967 -154.82446289 180.27001953 C-152.81880921 174.26293496 -150.31949778 168.48974452 -147.80859375 162.6796875 C-147.30385025 161.503992 -146.79910675 160.32829651 -146.27906799 159.11697388 C-144.93976324 155.99763786 -143.59603929 152.88022468 -142.25140381 149.76318359 C-140.91928381 146.67278508 -139.59176426 143.58041216 -138.26367188 140.48828125 C-131.88247458 125.64144375 -125.45741468 110.81383572 -119 96 C-120.67292114 95.78500854 -120.67292114 95.78500854 -122.37963867 95.56567383 C-127.26822704 94.8018422 -128.55939873 93.44060127 -132 90 C-135.09542285 85.12972718 -134.5958585 79.55638055 -134 74 C-131.73212562 69.1153475 -128.8846525 66.26787438 -124 64 C-118.4002288 63.24618465 -113.66500009 63.22696425 -108.5 65.625 C-103.6856245 70.19865673 -101.74843764 73.3087462 -101.5 80 C-101.68999542 85.11720994 -102.37166337 88.18069828 -106 92 C-110.19252404 95.38970029 -111.4459508 96 -117 96 C-103.14 123.72 -89.28 151.44 -75 180 C-74.34 180 -73.68 180 -73 180 C-63.89751219 159.87794093 -54.84811237 139.73539062 -46 119.5 C-38.86089495 103.17514477 -31.59131753 86.91249256 -24.2616272 70.67242432 C-23.90200897 69.87560242 -23.54239075 69.07878052 -23.171875 68.2578125 C-22.81781586 67.47339783 -22.46375671 66.68898315 -22.09896851 65.88079834 C-17.01516939 54.60986307 -12.00358957 43.30673503 -7 32 C-8.08667969 31.88269531 -9.17335937 31.76539062 -10.29296875 31.64453125 C-15.21563166 30.78864149 -16.52677769 29.47322231 -20 26 C-23.09542285 21.12972718 -22.5958585 15.55638055 -22 10 C-17.52212837 0.3553534 -9.85292056 -1.32635469 0 0 Z " fill="#FECC38" transform="translate(262,80)"/>
<path d="M0 0 C0.66 0 1.32 0 2 0 C13.5217846 26.44227663 25.00705589 52.90047009 36.34469604 79.42230225 C37.36332254 81.80374921 38.38360191 84.18448988 39.4055481 86.56451416 C40.83503372 89.89515985 42.25823712 93.22841861 43.6796875 96.5625 C44.31714653 98.04337601 44.31714653 98.04337601 44.96748352 99.5541687 C45.35445908 100.46570709 45.74143463 101.37724548 46.14013672 102.31640625 C46.47713593 103.10474854 46.81413513 103.89309082 47.16134644 104.70532227 C48.04380041 107.11984428 48.56021219 109.4704594 49 112 C48.53307739 112.39586807 48.06615479 112.79173615 47.58508301 113.19960022 C41.95976719 118.0371837 36.69711323 123.17286116 31.46875 128.43359375 C30.59222778 129.31153091 29.71570557 130.18946808 28.81262207 131.0940094 C26.03937204 133.87281496 23.26963718 136.65509397 20.5 139.4375 C18.60989195 141.33319865 16.71898482 143.22809783 14.828125 145.12304688 C10.21608996 149.74605189 5.60692859 154.37190657 1 159 C-4.8797505 154.12275563 -10.26880817 148.86113122 -15.65234375 143.4453125 C-16.55247696 142.54376434 -17.45261017 141.64221619 -18.38002014 140.71334839 C-20.75072823 138.33801783 -23.11924515 135.96054595 -25.48669434 133.58197021 C-27.91180728 131.14655283 -30.33982085 128.71403088 -32.76757812 126.28125 C-37.51437128 121.52347231 -42.25829281 116.7628462 -47 112 C-44.86203043 105.16260961 -42.24205653 98.60955195 -39.4140625 92.03125 C-38.96417465 90.9769278 -38.5142868 89.92260559 -38.05076599 88.83633423 C-36.57891623 85.38942262 -35.10201801 81.94469976 -33.625 78.5 C-32.60183874 76.10673349 -31.57897462 73.71333994 -30.55639648 71.31982422 C-27.90692822 65.1210127 -25.25299627 58.92412486 -22.59747314 52.72790527 C-21.01837591 49.04325978 -19.44048247 45.35810006 -17.86279297 41.67285156 C-11.91469186 27.77925475 -5.96072626 13.88818488 0 0 Z " fill="#C7322E" transform="translate(255,209)"/>
<path d="M0 0 C4.8846525 2.26787438 7.73212562 5.1153475 10 10 C10.75381535 15.5997712 10.77303575 20.33499991 8.375 25.5 C5.11053523 28.93627871 2.22729751 31.91595104 -2.69140625 32.1015625 C-3.45324219 32.06804687 -4.21507812 32.03453125 -5 32 C-4.74516342 32.58626663 -4.49032684 33.17253326 -4.22776794 33.77656555 C-2.98374144 36.63874542 -1.73990126 39.50100621 -0.49609375 42.36328125 C-0.02546509 43.44619446 0.44516357 44.52910767 0.93005371 45.64483643 C3.52854735 51.62550145 6.12410603 57.60741782 8.71459961 63.59155273 C9.76802058 66.02459666 10.82148736 68.45762076 11.875 70.890625 C12.39828384 72.0992067 12.92156769 73.30778839 13.46070862 74.55299377 C16.21563576 80.9085998 18.98746668 87.25600471 21.7938385 93.58906555 C23.23160476 96.83607202 24.65848088 100.08779105 26.08346558 103.34042358 C26.73405637 104.81704424 27.39021872 106.29122312 28.05203247 107.7628479 C28.95634026 109.77482954 29.84157348 111.79417145 30.72265625 113.81640625 C31.21515869 114.92443604 31.70766113 116.03246582 32.21508789 117.17407227 C33 120 33 120 32.23486328 122.27246094 C30.85983913 124.19608113 29.41036999 125.94337189 27.8125 127.6875 C24.4674202 131.40347777 21.44886271 135.2912432 18.48046875 139.3125 C17.99191406 139.869375 17.50335938 140.42625 17 141 C16.34 141 15.68 141 15 141 C14.78472656 141.53496094 14.56945312 142.06992187 14.34765625 142.62109375 C12.50749742 145.86937411 10.00157733 148.38419927 7.4375 151.0625 C3.65597402 155.07836454 0.00641818 159.12300027 -3.4375 163.4375 C-7.11427043 168.00642796 -10.97005812 172.37160707 -14.9375 176.6875 C-15.79009399 177.62517212 -15.79009399 177.62517212 -16.65991211 178.58178711 C-18.064406 180.09482453 -19.52760531 181.552955 -21 183 C-21.66 183 -22.32 183 -23 183 C-27.0625 173.859375 -31.125 164.71875 -35.1875 155.578125 C-35.62715088 154.58915222 -36.06680176 153.60017944 -36.51977539 152.58123779 C-37.40119722 150.59755108 -38.28189597 148.61354293 -39.16186523 146.62921143 C-41.23827157 141.94912693 -43.32464845 137.27429374 -45.44140625 132.61230469 C-45.81672485 131.78137299 -46.19204346 130.95044128 -46.57873535 130.09432983 C-47.27782493 128.54798915 -47.98126559 127.00360539 -48.68981934 125.46157837 C-50.03839575 122.46979535 -51 120.32128149 -51 117 C-50.03213372 115.96886719 -49.0282238 114.97095614 -48 114 C-46.56258128 111.39563307 -45.2095066 108.7976198 -43.89575195 106.13208008 C-43.49541748 105.33184921 -43.09508301 104.53161835 -42.68261719 103.70713806 C-41.36212928 101.06407395 -40.05019082 98.41686234 -38.73828125 95.76953125 C-37.82386233 93.93509764 -36.90891281 92.10092842 -35.99345398 90.26701355 C-33.58631232 85.44128008 -31.1864 80.6119862 -28.78796387 75.78192139 C-26.3389012 70.85309919 -23.88303458 65.92767019 -21.42773438 61.00195312 C-16.61181569 51.33794853 -11.80352577 41.67016982 -7 32 C-8.11528076 31.85667236 -9.23056152 31.71334473 -10.37963867 31.56567383 C-15.26822704 30.8018422 -16.55939873 29.44060127 -20 26 C-23.09542285 21.12972718 -22.5958585 15.55638055 -22 10 C-17.52212837 0.3553534 -9.85292056 -1.32635469 0 0 Z " fill="#FEB531" transform="translate(374,144)"/>
<path d="M0 0 C4.8846525 2.26787438 7.73212562 5.1153475 10 10 C10.75381535 15.5997712 10.77303575 20.33499991 8.375 25.5 C5.11053523 28.93627871 2.22729751 31.91595104 -2.69140625 32.1015625 C-3.45324219 32.06804687 -4.21507812 32.03453125 -5 32 C0.43454365 42.93847851 5.87549371 53.8737434 11.32473564 64.8049078 C13.85460329 69.88032498 16.38221781 74.95683865 18.90478516 80.03588867 C21.33749899 84.93381929 23.77599734 89.82882866 26.21860123 94.72183418 C27.15129026 96.59277204 28.08186006 98.46476786 29.01031113 100.33781242 C30.307172 102.95318715 31.61139413 105.56476016 32.91748047 108.17553711 C33.30302094 108.95740387 33.6885614 109.73927063 34.08578491 110.54483032 C35.81155059 114.43681632 35.81155059 114.43681632 39 117 C38.3328372 121.90875989 36.3307727 126.04519877 34.28125 130.5 C33.71976761 131.7377417 33.71976761 131.7377417 33.14694214 133.00048828 C32.34794737 134.76076749 31.54668314 136.52001805 30.74334717 138.27832031 C28.67507962 142.8057459 26.62314022 147.34055789 24.5703125 151.875 C24.16970612 152.75889404 23.76909973 153.64278809 23.35635376 154.5534668 C19.09305292 163.97457524 14.99715356 173.46293185 11 183 C6.81819219 181.40078133 4.23274365 178.31120691 1.3125 175.0625 C0.51259644 174.18525269 0.51259644 174.18525269 -0.3034668 173.2902832 C-3.42180145 169.84237228 -6.40899791 166.3196376 -9.3125 162.6875 C-13.15204171 157.89681499 -17.2761302 153.4484497 -21.5 149 C-26.59882411 143.62873408 -31.48164038 138.22003998 -36.046875 132.3828125 C-37.95503909 129.96191143 -37.95503909 129.96191143 -40.203125 127.8671875 C-40.87859375 127.20976562 -41.5540625 126.55234375 -42.25 125.875 C-42.85328125 125.33617187 -43.4565625 124.79734375 -44.078125 124.2421875 C-45.89873577 119.81409181 -42.63739108 114.56719011 -40.91781616 110.33917236 C-39.66620368 107.38677519 -38.38665965 104.44798095 -37.09765625 101.51171875 C-36.6231604 100.42221924 -36.14866455 99.33271973 -35.65979004 98.21020508 C-34.13078044 94.70113367 -32.59662693 91.19433673 -31.0625 87.6875 C-29.49457871 84.09194651 -27.92802801 80.49579796 -26.36155701 76.89961243 C-25.33282876 74.53816536 -24.30366748 72.17690688 -23.27406311 69.81584167 C-19.33764896 60.78687808 -15.43372741 51.74458349 -11.5625 42.6875 C-11.07982666 41.55852295 -10.59715332 40.4295459 -10.09985352 39.26635742 C-9.06543745 36.84471798 -8.03194488 34.42269326 -7 32 C-8.63001953 31.82404297 -8.63001953 31.82404297 -10.29296875 31.64453125 C-15.21563166 30.78864149 -16.52677769 29.47322231 -20 26 C-23.09542285 21.12972718 -22.5958585 15.55638055 -22 10 C-17.52212837 0.3553534 -9.85292056 -1.32635469 0 0 Z " fill="#FEB532" transform="translate(150,144)"/>
<path d="M0 0 C0.66 0 1.32 0 2 0 C13.5217846 26.44227663 25.00705589 52.90047009 36.34469604 79.42230225 C37.36332254 81.80374921 38.38360191 84.18448988 39.4055481 86.56451416 C40.83503372 89.89515985 42.25823712 93.22841861 43.6796875 96.5625 C44.10466019 97.54975067 44.52963287 98.53700134 44.96748352 99.5541687 C45.35445908 100.46570709 45.74143463 101.37724548 46.14013672 102.31640625 C46.47713593 103.10474854 46.81413513 103.89309082 47.16134644 104.70532227 C48.04380041 107.11984428 48.56021219 109.4704594 49 112 C48.53013168 112.39840591 48.06026337 112.79681183 47.57615662 113.20729065 C42.03703531 117.97078001 36.86037967 123.02439718 31.72265625 128.21484375 C30.4447245 129.49845543 30.4447245 129.49845543 29.14097595 130.80799866 C26.44569707 133.51540568 23.75370874 136.22604754 21.0625 138.9375 C17.49370951 142.53277034 13.92169616 146.1247927 10.34765625 149.71484375 C9.11342674 150.96152077 9.11342674 150.96152077 7.85426331 152.23338318 C7.09935104 152.99159866 6.34443878 153.74981415 5.56665039 154.53100586 C4.56692955 155.53858192 4.56692955 155.53858192 3.54701233 156.56651306 C2 158 2 158 1 158 C0.67 105.86 0.34 53.72 0 0 Z " fill="#EA423E" transform="translate(255,209)"/>
<path d="M0 0 C1.22361298 3.67083895 0.88366728 6.78830082 0.58203125 10.57421875 C0.49629601 11.7386274 0.49629601 11.7386274 0.40882874 12.92655945 C0.21635604 15.51405717 0.01470357 18.10074578 -0.1875 20.6875 C-0.32498411 22.49623547 -0.46218597 24.30499242 -0.59912109 26.11376953 C-1.05413942 32.0768022 -1.52574681 38.03847033 -2 44 C-2.08546082 45.07795837 -2.17092163 46.15591675 -2.25897217 47.26654053 C-2.78528042 53.89534727 -3.31881354 60.52352351 -3.86123657 67.15103149 C-4.03698586 69.29920716 -4.21177126 71.44746191 -4.3855896 73.59579468 C-4.63070235 76.61368507 -4.88094077 79.63110462 -5.1328125 82.6484375 C-5.24205299 84.00505745 -5.24205299 84.00505745 -5.35350037 85.38908386 C-5.42392044 86.21894302 -5.49434052 87.04880219 -5.56689453 87.90380859 C-5.62668488 88.6261972 -5.68647522 89.34858582 -5.74807739 90.09286499 C-6 92 -6 92 -7 95 C-30.76 95 -54.52 95 -79 95 C-75.02025102 89.69366802 -71.05860481 84.6380824 -66.6875 79.6875 C-62.10448678 74.44958498 -57.62368617 69.15085069 -53.2421875 63.7421875 C-50.69746317 60.62999852 -48.10381775 57.56273503 -45.5 54.5 C-42.12711398 50.53100848 -38.78823226 46.5398282 -35.5 42.5 C-31.75212202 37.8954642 -27.93016556 33.35980809 -24.0859375 28.8359375 C-20.45219765 24.55259052 -16.89337563 20.212006 -13.34765625 15.85546875 C-8.95996366 10.51869123 -4.47614988 5.26261359 0 0 Z " fill="#FFB632" transform="translate(439,273)"/>
<path d="M0 0 C3.56531875 2.68951746 6.35752512 5.4386962 9.125 8.9375 C9.90101562 9.90558594 10.67703125 10.87367188 11.4765625 11.87109375 C11.88551758 12.38140137 12.29447266 12.89170898 12.71582031 13.41748047 C14.93264824 16.14932051 17.21853874 18.8221259 19.5 21.5 C23.6216932 26.34900892 27.66992744 31.25162514 31.6875 36.1875 C34.26146392 39.31799666 36.87569086 42.41172461 39.5 45.5 C43.62101634 50.34959381 47.66991354 55.25160806 51.6875 60.1875 C54.26146773 63.31800129 56.87588639 66.41155387 59.5 69.5 C66.57351275 77.83387069 73.43806368 86.25075158 80 95 C56.24 95 32.48 95 8 95 C6.15168612 75.9007566 4.31544625 56.80698054 2.63745117 37.69287109 C2.30511303 33.91605164 1.96799425 30.13967522 1.63085938 26.36328125 C1.4163788 23.92971285 1.20217493 21.49612005 0.98828125 19.0625 C0.88832352 17.94907227 0.78836578 16.83564453 0.68537903 15.68847656 C0.22902582 10.43658994 -0.11857801 5.27180006 0 0 Z " fill="#FFB632" transform="translate(72,273)"/>
<path d="M0 0 C16.01729159 3.38900141 31.66405231 7.20257901 47 13 C47.84796143 13.32000977 48.69592285 13.64001953 49.56958008 13.96972656 C55.56738644 16.29812774 61.29134125 19.03635588 67 22 C65.82241651 25.26702333 64.70069236 27.67234099 62.27734375 30.1640625 C61.74367188 30.72287109 61.21 31.28167969 60.66015625 31.85742188 C60.09167969 32.44072266 59.52320313 33.02402344 58.9375 33.625 C54.95750024 37.80138133 51.09832285 41.98366927 47.5 46.5 C43.84688019 51.05109339 40.01068241 55.3929858 36.0625 59.6875 C35.49402344 60.31269531 34.92554688 60.93789063 34.33984375 61.58203125 C32.93543632 63.09499191 31.47231261 64.55303567 30 66 C29.34 66 28.68 66 28 66 C23.9375 56.859375 19.875 47.71875 15.8125 38.578125 C15.37284912 37.58915222 14.93319824 36.60017944 14.48022461 35.58123779 C13.59880278 33.59755108 12.71810403 31.61354293 11.83813477 29.62921143 C9.76172843 24.94912693 7.67535155 20.27429374 5.55859375 15.61230469 C5.18327515 14.78137299 4.80795654 13.95044128 4.42126465 13.09432983 C3.72217507 11.54798915 3.01873441 10.00360539 2.31018066 8.46157837 C0.96160425 5.46979535 0 3.32128149 0 0 Z " fill="#EB433E" transform="translate(323,261)"/>
<path d="M0 0 C-0.6671628 4.90875989 -2.6692273 9.04519877 -4.71875 13.5 C-5.28023239 14.7377417 -5.28023239 14.7377417 -5.85305786 16.00048828 C-6.65205263 17.76076749 -7.45331686 19.52001805 -8.25665283 21.27832031 C-10.32492038 25.8057459 -12.37685978 30.34055789 -14.4296875 34.875 C-14.83029388 35.75889404 -15.23090027 36.64278809 -15.64364624 37.5534668 C-19.90694708 46.97457524 -24.00284644 56.46293185 -28 66 C-32.18179492 64.40078626 -34.76728418 61.31122844 -37.6875 58.0625 C-38.22004395 57.47839355 -38.75258789 56.89428711 -39.30126953 56.29248047 C-43.19838346 51.9830479 -46.86450205 47.51800852 -50.48828125 42.9765625 C-54.28468593 38.47755727 -58.36659876 34.24734583 -62.47998047 30.03759766 C-63.06537598 29.42706543 -63.65077148 28.8165332 -64.25390625 28.1875 C-64.78314697 27.64480469 -65.3123877 27.10210937 -65.85766602 26.54296875 C-67 25 -67 25 -67 22 C-57.64991604 17.38790228 -48.42723011 13.20960938 -38.46484375 10.10546875 C-36.0717672 9.34195053 -33.70646669 8.48759929 -31.37109375 7.5625 C-25.77225128 5.43265957 -19.94793148 4.17409772 -14.125 2.8125 C-12.98546875 2.53986328 -11.8459375 2.26722656 -10.671875 1.98632812 C-2.28847509 0 -2.28847509 0 0 0 Z " fill="#EB433E" transform="translate(189,261)"/>
<path d="M0 0 C0 21.12 0 42.24 0 64 C-7.87912257 57.24646637 -7.87912257 57.24646637 -11.55834961 53.58691406 C-12.78883278 52.36600067 -12.78883278 52.36600067 -14.04417419 51.12042236 C-14.90487015 50.26083923 -15.7655661 49.4012561 -16.65234375 48.515625 C-17.55247696 47.61882019 -18.45261017 46.72201538 -19.38002014 45.79803467 C-21.26972655 43.91336764 -23.15827967 42.02761953 -25.04516602 40.14013672 C-27.46678591 37.71841429 -29.8952685 35.30369818 -32.32547665 32.8905983 C-34.64723423 30.58258099 -36.9618537 28.26742749 -39.27734375 25.953125 C-40.15220932 25.08544495 -41.02707489 24.21776489 -41.92845154 23.3237915 C-42.72670853 22.52245789 -43.52496552 21.72112427 -44.34741211 20.89550781 C-45.40828285 19.8367746 -45.40828285 19.8367746 -46.49058533 18.75665283 C-48 17 -48 17 -48 15 C-47.46795456 14.82682755 -46.93590912 14.65365509 -46.38774109 14.47523499 C-40.85619037 12.67477901 -35.32468764 10.87417569 -29.79321289 9.07348633 C-27.72812107 8.40124788 -25.66301697 7.72904717 -23.59790039 7.05688477 C-20.63164095 6.09140757 -17.66542552 5.12579527 -14.69921875 4.16015625 C-13.7741301 3.85908463 -12.84904144 3.558013 -11.8959198 3.24781799 C-11.03525406 2.967603 -10.17458832 2.687388 -9.2878418 2.39868164 C-8.53061325 2.15219376 -7.7733847 1.90570587 -6.99320984 1.65174866 C-1.94175076 0 -1.94175076 0 0 0 Z " fill="#972623" transform="translate(256,304)"/>
<path d="M0 0 C5.89875 1.8975 11.7975 3.795 17.875 5.75 C20.63593018 6.63510254 20.63593018 6.63510254 23.45263672 7.53808594 C31.41672287 10.10403542 39.29345744 12.72241422 47 16 C42.18960893 21.78829837 37.02564447 27.11999073 31.69921875 32.43359375 C30.82223831 33.31153091 29.94525787 34.18946808 29.04170227 35.0940094 C27.1998471 36.9365418 25.3567416 38.7778251 23.51245117 40.61791992 C21.61837191 42.50839797 19.72569881 44.40014126 17.83569336 46.29467773 C15.10535829 49.03115423 12.37162543 51.76418703 9.63671875 54.49609375 C8.36026741 55.77558144 8.36026741 55.77558144 7.05802917 57.08091736 C6.27664078 57.85915359 5.49525238 58.63738983 4.69018555 59.43920898 C3.99990768 60.12869125 3.30962982 60.81817352 2.59843445 61.52854919 C1 63 1 63 0 63 C0 42.21 0 21.42 0 0 Z " fill="#C7312E" transform="translate(256,304)"/>
<path d="M0 0 C4.8846525 2.26787438 7.73212562 5.1153475 10 10 C10.75381535 15.5997712 10.77303575 20.33499991 8.375 25.5 C3.80134327 30.3143755 0.6912538 32.25156236 -6 32.5 C-12.6912538 32.25156236 -15.80134327 30.3143755 -20.375 25.5 C-22.77303575 20.33499991 -22.75381535 15.5997712 -22 10 C-17.52212837 0.3553534 -9.85292056 -1.32635469 0 0 Z " fill="#FFD33A" transform="translate(374,144)"/>
<path d="M0 0 C4.8846525 2.26787438 7.73212562 5.1153475 10 10 C10.75381535 15.5997712 10.77303575 20.33499991 8.375 25.5 C3.80134327 30.3143755 0.6912538 32.25156236 -6 32.5 C-12.6912538 32.25156236 -15.80134327 30.3143755 -20.375 25.5 C-22.77303575 20.33499991 -22.75381535 15.5997712 -22 10 C-17.52212837 0.3553534 -9.85292056 -1.32635469 0 0 Z " fill="#FFD33A" transform="translate(150,144)"/>
</svg>
