<?xml version="1.0" standalone="no"?>
<!DOCTYPE svg PUBLIC "-//W3C//DTD SVG 20010904//EN"
 "http://www.w3.org/TR/2001/REC-SVG-20010904/DTD/svg10.dtd">
<svg version="1.0" xmlns="http://www.w3.org/2000/svg"
 width="300.000000pt" height="400.000000pt" viewBox="0 0 300.000000 400.000000"
 preserveAspectRatio="xMidYMid meet">
<metadata>
Created by potrace 1.10, written by Peter Selinger 2001-2011
</metadata>
<g transform="translate(0.000000,400.000000) scale(0.100000,-0.100000)"
fill="#000000" stroke="none">
<path d="M83 3418 c4 -321 10 -716 14 -879 l6 -296 54 24 c97 45 187 27 261
-50 29 -30 71 -127 55 -127 -3 0 2 -9 11 -19 26 -29 37 -88 19 -102 -18 -16 0
-29 42 -29 17 0 37 -4 45 -10 16 -10 28 -110 29 -242 1 -43 4 -78 9 -78 17 1
64 48 53 54 -6 4 -15 5 -20 2 -5 -3 -14 1 -21 9 -18 21 11 52 48 51 22 -1 27
-5 24 -24 l-2 -24 29 19 c16 10 61 42 101 70 40 29 107 67 150 84 63 26 80 38
92 63 19 42 4 116 -24 116 -25 0 -36 -30 -15 -42 24 -13 21 -51 -5 -75 -13
-11 -52 -33 -88 -48 -36 -16 -95 -50 -133 -77 -56 -40 -75 -48 -111 -48 -52 0
-55 5 -63 110 -3 41 -10 80 -15 86 -4 6 -29 17 -53 24 -25 7 -45 16 -45 20 0
23 13 38 28 33 14 -5 14 -3 -2 15 -11 12 -25 22 -33 22 -7 0 -13 1 -14 3 0 1
-3 22 -5 47 -3 25 -14 54 -25 66 -32 34 -24 81 14 75 4 0 7 3 7 7 0 5 57 8
126 8 69 -1 128 2 130 6 5 8 -166 19 -234 15 -29 -2 -58 -9 -64 -15 -14 -14
-42 -16 -34 -4 6 10 -73 52 -96 52 -8 0 -18 3 -21 7 -13 12 -61 10 -105 -4
-24 -8 -50 -12 -58 -9 -17 6 -20 81 -4 91 8 5 8 11 0 20 -6 7 -12 108 -15 261
-3 137 -8 330 -11 429 -11 332 -13 399 -13 648 -1 181 -4 247 -13 247 -8 0
-10 -142 -5 -582z"/>
<path d="M328 3993 c18 -2 45 -2 60 0 15 2 0 4 -33 4 -33 0 -45 -2 -27 -4z"/>
<path d="M535 3912 c-49 -8 -92 -16 -94 -18 -13 -12 12 -11 69 1 36 8 90 15
120 16 30 0 66 5 80 9 44 14 -77 9 -175 -8z"/>
<path d="M2479 3906 c-2 -2 -33 -7 -69 -11 -36 -3 -72 -8 -80 -10 -8 -2 -98
-13 -200 -25 -102 -11 -257 -31 -345 -44 -88 -13 -205 -29 -260 -36 -117 -14
-205 -29 -205 -36 0 -3 6 -11 12 -18 11 -11 14 -11 23 0 6 8 49 18 110 24 90
9 149 17 380 50 39 6 90 12 115 14 43 5 168 22 220 31 85 14 309 48 328 49 12
0 22 4 22 9 0 7 -43 10 -51 3z"/>
<path d="M2963 3800 c-34 -20 -37 -32 -33 -110 3 -67 15 -49 15 23 0 71 0 72
28 75 15 2 27 9 27 18 0 18 1 18 -37 -6z"/>
<path d="M975 3799 c-27 -5 -67 -10 -88 -12 -20 -2 -41 -8 -45 -12 -8 -8 133
3 175 14 43 11 13 18 -42 10z"/>
<path d="M1147 3744 c-4 -10 -10 -25 -13 -31 -6 -15 5 -17 24 -5 9 6 10 16 4
32 -8 22 -9 22 -15 4z"/>
<path d="M1038 3715 c-3 -3 -31 -9 -63 -13 -32 -4 -60 -13 -63 -20 -4 -12 2
-12 120 4 27 3 50 10 54 15 3 5 1 9 -5 9 -5 0 -16 2 -23 5 -8 3 -17 3 -20 0z"/>
<path d="M806 3683 c-2 -2 -32 -6 -67 -9 -35 -3 -71 -8 -79 -11 -8 -3 -29 -6
-47 -7 -18 -1 -36 -6 -40 -10 -4 -5 26 -5 67 -2 41 4 103 9 138 11 66 4 86 11
77 25 -5 8 -42 10 -49 3z"/>
<path d="M1202 3638 c-10 -28 -10 -30 11 -24 12 3 30 6 40 6 9 0 17 5 17 11 0
6 -7 9 -15 5 -8 -3 -20 3 -28 14 -12 18 -14 17 -25 -12z"/>
<path d="M1337 3634 c-4 -4 -4 -17 -1 -30 3 -12 1 -32 -6 -44 -8 -16 -9 -25 0
-35 7 -9 9 -30 5 -59 -5 -33 -4 -46 5 -46 7 0 10 7 7 15 -4 8 -2 17 3 20 10 6
7 171 -2 180 -3 3 -8 2 -11 -1z"/>
<path d="M1088 3623 c-28 -4 -39 -22 -15 -24 21 -2 62 3 71 8 8 5 -13 24 -24
21 -3 0 -17 -3 -32 -5z"/>
<path d="M975 3600 c-4 -6 -12 -7 -18 -4 -7 4 -8 3 -4 -1 17 -19 77 -14 77 6
0 12 -47 12 -55 -1z"/>
<path d="M858 3595 c-2 -3 -36 -7 -76 -11 -39 -3 -79 -7 -89 -9 -10 -2 -24 -4
-30 -4 -7 -1 -13 -5 -13 -9 0 -8 39 -7 160 3 92 7 122 14 114 26 -5 9 -57 13
-66 4z"/>
<path d="M490 3544 l-25 -15 30 6 c17 3 38 6 48 6 9 0 15 4 12 10 -9 13 -36
11 -65 -7z"/>
<path d="M1155 3524 c-11 -9 -13 -13 -4 -16 20 -7 132 11 144 23 14 15 -119 8
-140 -7z"/>
<path d="M1069 3513 c7 -15 17 -19 36 -15 31 5 22 18 -19 28 -26 6 -27 5 -17
-13z"/>
<path d="M995 3514 c-8 -3 -261 -29 -358 -37 -16 -1 -16 -3 -3 -12 10 -8 36
-9 78 -4 35 4 97 10 139 14 141 11 179 19 179 36 0 9 -17 11 -35 3z"/>
<path d="M553 3473 c-24 -5 -30 -18 -14 -28 5 -3 12 -1 16 5 3 5 18 10 33 10
21 0 24 2 12 10 -8 5 -17 9 -20 8 -3 0 -15 -3 -27 -5z"/>
<path d="M465 3451 c-7 -12 31 -25 45 -16 5 3 10 10 10 16 0 12 -47 12 -55 0z"/>
<path d="M1144 3406 c-19 -19 -19 -19 1 -11 11 4 43 11 72 14 73 10 76 19 6
18 -44 -1 -64 -7 -79 -21z"/>
<path d="M993 3409 c-5 -5 -90 -11 -189 -14 -98 -3 -192 -8 -209 -11 -54 -10
-68 -16 -57 -23 10 -6 56 -4 239 13 53 5 62 4 66 -11 4 -15 5 -15 6 -2 1 13
17 18 72 23 83 9 121 19 97 29 -9 3 -20 1 -25 -4z"/>
<path d="M378 3363 c-47 -7 -31 -23 22 -22 28 1 50 6 50 10 0 5 -4 9 -9 9 -5
0 -15 2 -23 3 -7 2 -25 2 -40 0z"/>
<path d="M729 3306 c-3 -3 -27 -8 -55 -11 -27 -4 -53 -11 -59 -17 -7 -7 17 -8
80 -4 86 7 103 11 94 20 -8 8 -55 17 -60 12z"/>
<path d="M480 3275 l-35 -14 55 2 c30 1 56 7 58 12 4 16 -39 15 -78 0z"/>
<path d="M680 3189 c0 -5 20 -9 45 -9 59 0 59 14 0 17 -25 1 -45 -3 -45 -8z"/>
<path d="M1332 3105 c-8 -17 -8 -25 -1 -25 6 0 7 -5 4 -10 -4 -6 -3 -10 2 -9
20 3 27 -2 13 -11 -10 -7 -11 -10 -2 -10 7 0 15 7 18 15 4 9 19 15 40 15 35 0
42 -8 23 -27 -8 -8 -7 -13 2 -18 8 -5 10 -4 5 3 -4 7 -1 12 8 12 9 0 16 4 16
8 0 19 -38 42 -68 42 -25 0 -32 4 -32 20 0 28 -14 25 -28 -5z"/>
<path d="M1456 3091 c-6 -9 63 -36 81 -33 19 4 54 -18 48 -28 -3 -6 1 -7 10
-3 10 3 21 0 26 -8 7 -12 9 -11 9 2 0 24 -76 68 -126 73 -24 2 -46 1 -48 -3z"/>
<path d="M1235 3073 c-27 -7 -74 -13 -103 -14 -40 -1 -59 -7 -78 -24 -13 -12
-24 -25 -24 -29 0 -7 42 15 50 26 3 4 25 6 48 4 23 -2 45 0 48 5 2 4 11 6 19
3 7 -3 25 2 39 11 14 9 30 14 35 10 6 -3 18 -2 27 3 30 16 -8 20 -61 5z"/>
<path d="M1264 3025 c-16 -13 -17 -16 -4 -25 21 -14 33 -12 27 4 -3 8 -1 16 6
19 7 2 8 5 0 10 -5 3 -19 0 -29 -8z"/>
<path d="M1356 2986 c-9 -19 -16 -42 -16 -52 0 -9 -8 -26 -17 -36 -31 -35 -24
-50 11 -23 18 14 38 25 44 25 17 0 32 34 25 59 -5 20 -6 20 -19 4 -11 -16 -12
-13 -7 20 7 46 0 47 -21 3z"/>
<path d="M643 3003 c-19 -7 -16 -20 5 -21 25 -1 74 9 69 15 -8 7 -61 12 -74 6z"/>
<path d="M962 2998 c2 -9 -1 -16 -7 -15 -5 1 -9 7 -7 12 2 6 -2 4 -10 -3 -11
-11 -10 -14 2 -22 33 -21 78 0 61 29 -7 10 -10 10 -16 1 -6 -9 -10 -9 -17 1
-7 11 -8 10 -6 -3z"/>
<path d="M1087 2987 c-9 -24 -9 -29 2 -23 5 3 9 -4 8 -17 -1 -28 6 -50 17 -58
4 -4 3 -16 -3 -27 -6 -11 -11 -27 -11 -34 1 -24 29 51 29 79 2 57 4 68 15 83
7 10 3 9 -10 -2 -11 -10 -23 -18 -27 -18 -3 0 -7 8 -9 18 -3 16 -4 16 -11 -1z"/>
<path d="M1207 2978 c-27 -24 -45 -68 -29 -68 5 0 15 7 22 15 7 8 9 15 4 15
-4 0 3 11 16 25 30 32 20 43 -13 13z"/>
<path d="M1488 2975 c-21 -28 -23 -41 -5 -49 6 -3 2 -3 -11 0 -20 5 -22 3 -16
-20 4 -17 2 -26 -6 -26 -6 0 -8 5 -4 13 6 9 3 8 -8 -1 -24 -19 -12 -40 18 -34
18 3 23 9 19 22 -4 12 1 22 11 28 10 6 15 16 11 26 -5 11 -1 16 13 16 14 0 18
5 13 17 -5 12 -2 15 10 10 9 -3 17 -2 17 3 0 6 -4 10 -9 10 -5 0 -15 2 -23 5
-7 2 -21 -6 -30 -20z"/>
<path d="M883 2978 c-23 -6 -33 -15 -33 -28 0 -11 -4 -20 -8 -20 -4 0 -9 -12
-10 -26 -1 -18 2 -25 12 -21 8 3 19 -8 29 -29 22 -44 21 -49 -6 -50 -41 -2
-47 -4 -47 -14 0 -5 5 -9 12 -7 7 1 12 -3 13 -10 0 -6 4 -15 9 -20 5 -5 6 -3
2 5 -4 7 -1 12 8 12 8 0 19 7 24 16 5 8 22 24 38 35 21 14 24 19 12 19 -10 0
-18 7 -18 16 0 14 -3 14 -15 4 -9 -7 -16 -11 -18 -9 -20 35 -23 49 -19 77 3
23 10 32 23 32 16 0 36 17 28 24 -2 2 -19 -1 -36 -6z"/>
<path d="M1043 2963 c9 -2 17 -9 17 -14 0 -6 -5 -7 -12 -3 -6 4 -8 3 -5 -3 4
-6 0 -16 -9 -23 -10 -9 -11 -15 -4 -20 8 -5 3 -17 -14 -37 -30 -36 -31 -40
-11 -40 8 0 15 6 15 13 0 7 6 17 14 21 7 4 21 23 30 41 19 37 8 73 -22 71 -16
-1 -16 -2 1 -6z"/>
<path d="M1660 2947 c0 -17 24 -39 33 -31 6 7 44 -15 75 -42 9 -9 33 -25 52
-37 45 -29 83 -85 77 -115 -2 -12 0 -25 4 -28 15 -9 10 51 -6 83 -15 30 -78
93 -93 93 -4 0 -15 8 -24 18 -28 29 -46 42 -60 42 -8 0 -24 7 -36 16 -19 13
-22 13 -22 1z"/>
<path d="M1287 2913 c-11 -11 -17 -13 -17 -5 0 19 -34 10 -46 -13 -6 -11 -16
-19 -22 -17 -7 1 -12 -2 -12 -7 0 -5 -3 -18 -7 -28 -4 -11 5 -6 27 15 58 55
73 33 16 -24 -19 -19 -32 -34 -28 -34 3 0 -4 -8 -15 -17 -12 -11 -22 -36 -26
-62 l-5 -43 25 37 c13 20 22 43 19 51 -3 9 -1 12 4 9 9 -5 12 1 9 21 -1 12 36
32 52 29 18 -4 35 23 23 34 -4 3 -9 0 -11 -6 -3 -7 -9 -13 -14 -13 -21 0 20
57 56 78 15 8 16 11 5 12 -9 0 -23 -8 -33 -17z"/>
<path d="M665 2909 c-44 -4 -99 -6 -121 -3 -23 3 -45 1 -48 -4 -8 -13 69 -22
104 -12 15 4 32 5 36 1 5 -5 42 -6 82 -3 60 4 71 7 61 18 -6 8 -17 13 -23 13
-6 -1 -47 -5 -91 -10z"/>
<path d="M1489 2887 c7 -9 10 -17 7 -17 -4 0 5 -21 20 -46 l28 -47 -26 17
c-21 14 -25 14 -25 1 0 -8 3 -12 6 -10 10 5 36 -18 45 -40 6 -13 10 -16 13 -7
3 7 0 19 -7 26 -7 9 -7 16 -1 20 5 3 12 0 15 -6 3 -7 4 -4 3 7 -2 11 -8 19
-15 18 -6 -2 -21 17 -32 41 -11 25 -26 48 -32 52 -9 5 -9 2 1 -9z"/>
<path d="M940 2874 c0 -10 6 -14 14 -11 8 3 17 1 20 -6 2 -7 5 -2 5 11 1 16
-5 22 -19 22 -12 0 -20 -7 -20 -16z"/>
<path d="M1326 2848 c-9 -12 -16 -31 -16 -41 0 -10 -4 -26 -9 -36 -6 -10 -6
-23 0 -32 7 -11 9 -9 9 9 0 13 10 38 22 55 12 17 17 27 10 23 -16 -10 -16 16
0 32 7 7 9 12 6 12 -4 0 -14 -10 -22 -22z"/>
<path d="M1560 2861 c0 -6 9 -15 20 -21 11 -6 20 -17 20 -25 0 -8 11 -26 25
-41 17 -18 23 -34 20 -48 -6 -21 -6 -21 9 -2 20 25 21 57 2 50 -9 -4 -20 6
-31 28 -16 33 -65 78 -65 59z"/>
<path d="M1740 2835 c-4 -26 -1 -66 7 -85 3 -8 8 -24 10 -35 2 -11 8 -24 13
-29 16 -16 12 67 -4 90 -8 11 -16 33 -19 49 -3 21 -5 24 -7 10z"/>
<path d="M777 2823 c-9 -2 -15 -9 -12 -14 4 -5 1 -9 -4 -9 -6 0 -11 5 -11 10
0 6 -30 10 -71 10 -52 0 -70 -3 -66 -12 2 -7 13 -12 23 -11 25 3 69 3 124 0
36 -2 45 1 48 16 4 17 1 18 -31 10z"/>
<path d="M1790 2821 c0 -6 6 -11 13 -11 9 0 8 -3 -2 -9 -11 -7 -11 -12 0 -32
8 -13 15 -28 15 -34 1 -5 2 -17 3 -25 2 -9 6 -6 12 8 5 14 14 21 21 17 7 -4 6
-1 -2 7 -9 7 -15 23 -14 36 1 19 -1 20 -14 10 -13 -11 -15 -10 -9 4 3 9 -1 22
-9 28 -10 9 -14 9 -14 1z"/>
<path d="M440 2809 c0 -4 -8 -9 -17 -12 -10 -2 19 -4 65 -4 54 0 82 3 82 11 0
6 5 4 10 -4 8 -13 10 -13 10 1 0 14 -12 16 -75 16 -41 0 -75 -4 -75 -8z"/>
<path d="M939 2803 c-7 -13 -19 -23 -25 -23 -7 0 -14 -13 -16 -30 -3 -21 0
-30 9 -30 8 0 12 4 9 9 -4 5 6 23 20 40 14 17 24 37 22 43 -3 8 -10 5 -19 -9z"/>
<path d="M1696 2804 c-17 -17 -19 -29 -7 -58 6 -16 9 -17 17 -5 7 11 14 79 7
79 -1 0 -9 -7 -17 -16z"/>
<path d="M1016 2785 c-16 -14 -27 -27 -25 -30 3 -2 17 7 32 21 18 17 27 20 27
10 0 -7 7 -17 16 -20 12 -4 15 0 12 16 -4 32 -28 33 -62 3z"/>
<path d="M2907 2765 c-21 -8 -52 -26 -68 -39 -16 -14 -38 -28 -50 -31 -14 -5
-18 -10 -11 -17 15 -15 52 1 62 27 6 16 22 28 47 35 44 12 95 39 73 39 -8 0
-32 -7 -53 -14z"/>
<path d="M790 2745 c-15 -18 -6 -61 15 -69 13 -4 14 -2 5 14 -13 24 -13 63 0
55 6 -3 10 -1 10 4 0 16 -16 13 -30 -4z"/>
<path d="M1106 2733 c-5 -17 -3 -29 6 -34 7 -5 9 -9 5 -9 -9 0 18 -30 26 -30
3 0 0 11 -6 25 -7 14 -15 25 -18 25 -3 0 -4 11 -1 25 6 33 -4 32 -12 -2z"/>
<path d="M721 2720 c-15 -13 -18 -20 -9 -20 8 0 20 -16 28 -35 15 -38 22 -42
39 -22 13 17 4 28 -16 20 -13 -5 -15 1 -11 35 4 48 2 49 -31 22z"/>
<path d="M1509 2721 c9 -17 8 -18 -12 -13 -21 5 -21 5 -4 -12 20 -20 19 -20
35 11 9 17 9 22 -4 27 -24 9 -26 8 -15 -13z"/>
<path d="M426 2721 c-9 -13 20 -21 79 -21 54 0 79 12 49 24 -24 9 -56 7 -49
-3 3 -6 -7 -6 -27 0 -41 11 -45 11 -52 0z"/>
<path d="M1844 2669 c3 -17 6 -38 6 -47 0 -27 10 -6 15 31 3 26 0 37 -11 41
-14 5 -16 1 -10 -25z"/>
<path d="M1804 2667 c4 -18 2 -34 -5 -43 -7 -9 -8 -14 -1 -14 5 0 15 13 20 29
8 24 7 32 -5 43 -14 12 -16 10 -9 -15z"/>
<path d="M2708 2670 c-20 -11 -46 -21 -57 -23 -24 -4 -51 -26 -51 -41 0 -6 7
-3 14 7 7 9 22 17 34 17 28 0 112 37 112 50 0 14 -9 12 -52 -10z"/>
<path d="M2880 2673 c0 -11 109 -27 118 -18 10 10 -4 14 -61 21 -36 4 -57 3
-57 -3z"/>
<path d="M368 2632 c-34 -7 -18 -23 20 -20 20 2 35 7 32 13 -5 10 -25 13 -52
7z"/>
<path d="M2985 2621 c-10 -17 -119 -72 -132 -67 -6 3 -47 -15 -90 -40 -43 -24
-86 -47 -95 -50 -10 -3 -18 -10 -18 -15 0 -12 5 -12 62 9 50 17 50 17 65 -5
17 -26 33 -30 33 -9 0 19 39 31 53 17 21 -21 32 -11 32 26 0 37 1 38 53 52 51
14 52 14 52 52 0 39 -4 47 -15 30z m-117 -99 c5 -15 -44 -34 -77 -30 -25 3
-24 4 14 25 42 23 56 24 63 5z"/>
<path d="M1360 2591 c0 -5 -18 -12 -40 -16 -58 -10 -49 -23 10 -15 54 7 66 13
55 29 -8 13 -25 14 -25 2z"/>
<path d="M1750 2590 c12 -8 12 -10 1 -10 -11 0 -11 -3 -1 -15 9 -11 9 -15 1
-15 -14 0 -8 -73 20 -274 13 -90 7 -202 -14 -263 l-14 -41 86 -12 c128 -17
276 -48 319 -66 75 -33 88 -43 117 -93 32 -54 51 -66 41 -27 -8 31 18 55 42
39 28 -17 25 -113 -4 -113 -17 0 -17 0 0 -40 8 -20 15 -27 18 -18 8 20 104 23
115 3 16 -28 79 -24 88 6 7 21 7 21 23 -3 22 -32 29 -36 58 -30 33 6 31 22 -3
22 -30 0 -61 15 -47 22 5 2 46 5 91 7 60 1 91 -2 114 -14 17 -9 28 -12 25 -6
-8 13 1 13 29 1 17 -7 17 -9 3 -9 -15 -1 -18 -11 -18 -61 l0 -61 -57 2 c-32 1
-74 5 -94 9 -21 4 -43 4 -50 0 -8 -5 3 -11 30 -17 99 -19 -8 -35 -134 -19 -16
2 -38 -1 -47 -5 -13 -7 -20 -4 -28 11 -10 19 -8 20 77 20 66 1 84 3 70 11 -10
6 -31 8 -46 4 -17 -4 -32 -2 -36 5 -5 8 -11 8 -21 -1 -11 -9 -19 -8 -34 6 -14
12 -20 14 -20 5 0 -10 -3 -10 -16 1 -10 8 -14 22 -10 40 4 19 0 29 -11 33 -19
8 -19 8 -27 -21 -4 -12 -2 -24 4 -28 7 -4 20 -26 30 -49 10 -23 25 -50 35 -60
16 -16 18 -16 30 0 8 12 18 15 31 10 10 -5 59 -10 108 -11 71 -3 92 -1 101 11
11 16 49 9 40 -6 -3 -5 2 -13 11 -18 12 -7 15 -20 13 -55 -3 -35 -1 -43 8 -35
7 6 31 8 53 6 45 -4 50 2 50 64 l0 41 39 -6 c31 -4 38 -2 34 9 -3 8 0 14 7 14
8 0 9 -10 5 -30 -4 -19 -3 -30 4 -30 6 0 11 20 11 46 0 40 -2 45 -15 34 -8 -7
-22 -9 -32 -5 -10 4 -34 8 -53 9 l-35 1 -3 58 -3 57 41 0 c28 0 40 -4 40 -14
0 -8 -8 -16 -17 -18 -13 -2 -14 -6 -6 -11 7 -5 21 1 33 13 20 20 28 46 10 35
-5 -3 -18 -1 -27 4 -15 8 -11 10 19 11 27 0 38 -5 41 -17 3 -10 5 -3 6 14 1
31 0 32 -25 23 -14 -6 -31 -7 -37 -3 -11 7 -81 11 -194 13 l-42 1 -3 52 -3 52
-45 7 c-25 3 -76 7 -115 8 -38 2 -81 7 -95 12 -14 5 -56 11 -94 13 -49 3 -72
9 -78 19 -9 17 -126 85 -155 90 -10 3 -48 11 -84 20 -76 17 -155 30 -184 28
-11 -1 -30 6 -43 14 -17 12 -20 19 -13 33 6 10 8 21 5 24 -3 3 -1 15 6 26 15
28 19 191 4 191 -16 0 -37 131 -37 237 -1 77 -4 93 -17 93 -13 0 -13 -1 0 -10z
m670 -796 c0 -11 6 -13 19 -9 11 3 22 1 26 -5 4 -7 12 -7 24 0 10 5 21 7 24 4
3 -4 34 -6 69 -6 95 0 100 -3 96 -51 l-3 -42 -95 4 c-52 3 -115 5 -140 5 -44
1 -44 1 -53 44 -6 30 -5 48 4 58 15 19 29 18 29 -2z m463 -298 l28 -8 -21 -22
c-11 -13 -18 -25 -15 -28 3 -3 -9 -5 -27 -4 -23 1 -41 10 -60 31 l-27 30 32 5
c38 7 53 6 90 -4z m-3 -96 c0 -16 -7 -20 -34 -20 -19 0 -38 5 -41 10 -11 18 5
30 41 30 27 0 34 -4 34 -20z"/>
<path d="M2660 2583 c-14 -3 -29 -9 -34 -14 -11 -10 4 -12 64 -10 l35 1 -37
-20 c-21 -11 -38 -25 -38 -30 0 -15 3 -13 69 25 32 19 64 35 70 35 6 0 11 5
11 10 0 10 -90 12 -140 3z"/>
<path d="M1634 2569 c-3 -5 7 -14 22 -19 28 -11 40 -8 30 8 -8 14 -45 22 -52
11z"/>
<path d="M1584 2554 c5 -12 1 -15 -22 -10 -50 9 -142 18 -142 13 0 -3 16 -15
36 -26 33 -20 38 -20 54 -6 16 15 18 14 24 -1 5 -13 9 -15 18 -6 17 17 28 15
29 -5 0 -10 3 -13 5 -6 4 8 21 10 52 7 35 -4 52 -1 67 11 20 16 20 16 -2 6
-35 -18 -64 -13 -85 14 -22 28 -43 34 -34 9z"/>
<path d="M650 2540 c0 -6 17 -10 39 -8 22 1 38 5 35 10 -8 12 -74 10 -74 -2z"/>
<path d="M740 2534 c0 -13 3 -14 15 -4 9 7 26 10 42 6 21 -5 24 -4 13 4 -25
16 -70 12 -70 -6z"/>
<path d="M2574 2529 c-3 -5 11 -9 31 -9 20 0 34 4 31 9 -3 5 -17 9 -31 9 -14
0 -28 -4 -31 -9z"/>
<path d="M2540 2469 c0 -7 11 -8 29 -4 22 5 32 2 39 -12 12 -21 25 -13 16 11
-7 18 -84 23 -84 5z"/>
<path d="M1710 2443 c0 -4 -21 -9 -46 -11 -33 -2 -51 -9 -68 -27 -13 -14 -26
-22 -29 -18 -4 3 -7 1 -7 -6 0 -6 7 -14 15 -17 8 -4 15 -11 15 -16 0 -6 -7 -5
-15 2 -21 17 -29 6 -14 -18 11 -17 15 -18 26 -6 8 8 12 22 8 33 -8 27 29 50
94 58 29 3 50 10 48 16 -4 13 -27 22 -27 10z"/>
<path d="M1238 2415 c-16 -9 -28 -20 -28 -25 0 -13 33 -13 47 1 7 7 13 7 17 1
4 -7 18 -7 39 -1 59 17 120 11 155 -14 17 -13 29 -26 26 -29 -3 -4 -1 -9 4
-12 6 -3 9 2 8 11 -2 10 2 21 8 25 6 5 2 8 -10 8 -12 0 -33 9 -48 21 -35 27
-177 36 -218 14z"/>
<path d="M275 2410 c-16 -8 -14 -9 10 -5 19 4 38 0 50 -9 16 -12 57 -15 212
-16 117 0 194 4 198 10 4 6 -14 10 -47 11 -29 0 -118 2 -198 2 -80 1 -158 5
-175 9 -16 4 -39 3 -50 -2z"/>
<path d="M1063 2397 c3 -18 -1 -31 -12 -36 -26 -14 -80 -20 -87 -9 -8 12 -52
2 -71 -18 -24 -24 -18 -76 16 -131 17 -28 31 -60 31 -72 0 -19 -4 -21 -40 -15
-27 4 -40 3 -40 -5 0 -6 13 -11 29 -11 16 0 47 -7 70 -15 l42 -15 -32 58 c-18
31 -41 70 -52 86 -24 33 -25 93 -2 115 13 14 18 14 44 -2 16 -9 36 -17 44 -17
19 0 65 -108 76 -180 5 -30 14 -56 20 -58 6 -2 8 -14 5 -27 -10 -38 15 -95 60
-136 47 -45 66 -50 41 -13 -9 14 -14 28 -11 31 6 6 -32 43 -43 43 -7 0 -41 54
-41 65 0 4 9 5 20 2 27 -7 25 6 -4 34 -13 13 -22 29 -19 36 3 7 -3 42 -12 77
-10 35 -16 78 -13 95 5 32 -5 41 -47 41 -13 0 -27 5 -31 11 -5 9 2 10 22 6 16
-3 66 -12 112 -19 71 -10 85 -10 92 2 12 20 5 24 -19 10 -12 -6 -27 -7 -34 -3
-6 4 -28 8 -47 8 -31 0 -36 4 -52 45 -13 31 -17 37 -15 17z"/>
<path d="M2460 2382 c0 -48 15 -74 22 -38 3 15 1 29 -4 32 -4 3 -6 9 -3 14 7
11 119 2 123 -10 7 -20 19 -9 15 13 -4 20 -10 22 -79 24 l-74 2 0 -37z"/>
<path d="M2650 2396 c0 -13 -5 -27 -10 -29 -6 -3 -5 -4 2 -3 7 2 25 -3 39 -10
15 -7 37 -11 50 -9 13 2 45 1 71 -3 l47 -7 -19 -39 c-15 -33 -16 -44 -5 -69
12 -29 47 -56 72 -57 7 0 30 16 51 35 22 19 42 32 46 28 3 -3 6 12 6 35 0 38
-2 41 -32 47 -125 25 -135 42 -30 47 49 2 62 6 62 19 0 14 -6 15 -46 6 -30 -7
-48 -7 -52 -1 -4 6 -15 14 -26 17 -13 5 -17 3 -13 -7 3 -7 0 -19 -6 -25 -14
-14 -64 -14 -73 0 -4 7 -22 9 -50 4 -40 -6 -45 -4 -56 19 -14 33 -28 33 -28 2z
m260 -91 c8 -9 22 -12 41 -8 26 5 29 3 29 -21 0 -16 -7 -29 -17 -33 -9 -4 -26
-18 -38 -31 -18 -21 -23 -22 -47 -12 -15 7 -29 24 -33 37 -14 58 32 108 65 68z"/>
<path d="M776 2363 c17 -34 18 -65 2 -81 -7 -7 -8 -12 -2 -12 6 0 16 11 22 25
9 20 9 33 -3 60 -7 19 -18 35 -24 35 -5 0 -3 -12 5 -27z"/>
<path d="M1640 2380 c-19 -4 -29 -8 -22 -9 6 0 12 -8 12 -16 0 -24 31 -31 45
-11 8 11 15 13 20 7 10 -16 35 -13 35 4 0 12 -44 40 -53 34 -1 -1 -18 -5 -37
-9z"/>
<path d="M1297 2358 c-38 -10 -57 -36 -57 -78 0 -15 9 -18 55 -19 30 0 55 4
55 9 0 6 -22 10 -50 10 -41 0 -48 3 -43 16 4 11 13 14 31 9 23 -6 24 -4 12 10
-12 14 -12 18 1 26 21 13 26 11 32 -11 3 -12 14 -20 25 -20 21 0 36 25 26 42
-3 5 3 4 15 -4 17 -11 18 -14 5 -21 -12 -7 -13 -12 -3 -23 13 -16 55 -19 64
-4 4 6 11 8 16 5 5 -4 2 -13 -7 -22 -9 -10 -14 -26 -11 -41 3 -18 0 -26 -15
-30 -11 -2 -17 -10 -14 -18 3 -7 1 -16 -3 -19 -11 -6 -21 -45 -12 -43 3 0 20
-3 38 -7 42 -10 33 -30 -21 -44 -57 -14 -80 -40 -71 -81 7 -30 7 -31 26 -14
24 21 30 23 138 32 56 5 94 4 118 -4 32 -11 35 -10 42 9 10 26 -8 59 -27 52
-8 -3 -21 2 -29 11 -9 8 -24 13 -34 11 -11 -3 -22 -1 -25 5 -4 6 -10 5 -15 -3
-15 -24 -10 -29 25 -25 24 3 38 -1 51 -16 17 -20 17 -21 -11 -15 -16 3 -37 1
-48 -5 -13 -7 -21 -7 -26 2 -6 9 -20 8 -64 -3 -31 -7 -56 -13 -56 -11 0 1 14
17 31 34 23 22 34 28 40 19 5 -9 17 -1 42 24 19 21 31 40 26 43 -5 3 -9 1 -9
-5 0 -6 -13 -2 -30 7 -25 14 -33 15 -50 4 -27 -16 -43 -6 -34 21 8 28 25 39
40 27 6 -6 14 -7 17 -3 12 11 8 23 -7 23 -21 0 -27 15 -17 42 6 13 10 16 11 8
0 -12 2 -12 10 2 11 18 4 48 -11 48 -5 0 -9 6 -9 14 0 8 -5 18 -12 22 -6 4 -8
3 -5 -3 4 -6 -3 -19 -14 -29 -18 -16 -19 -16 -13 -1 16 43 -49 59 -139 35z"/>
<path d="M1600 2310 c0 -4 7 -11 16 -14 19 -7 59 -8 52 -1 -10 11 -68 23 -68
15z"/>
<path d="M2688 2290 c-31 -24 -41 -66 -22 -101 16 -32 44 -41 84 -26 41 16 55
65 33 113 -20 40 -55 46 -95 14z m64 -17 c24 -21 23 -58 -2 -83 -24 -24 -34
-25 -54 -4 -21 20 -20 63 1 86 20 22 31 23 55 1z"/>
<path d="M1130 2286 c14 -9 36 -15 51 -16 14 0 30 -5 37 -12 9 -9 12 -7 12 9
0 15 -6 20 -27 19 -16 0 -44 3 -63 7 -35 8 -35 8 -10 -7z"/>
<path d="M1578 2263 c29 -63 66 -95 112 -97 30 0 45 5 62 23 l23 24 -27 -16
c-43 -26 -90 -22 -122 12 -15 15 -30 41 -35 56 -4 16 -12 30 -19 33 -7 2 -5
-10 6 -35z"/>
<path d="M971 2160 c26 -54 25 -54 38 -46 6 4 1 16 -12 29 -12 13 -28 32 -35
43 -7 10 -3 -1 9 -26z"/>
<path d="M2420 2177 c1 -24 36 -81 60 -99 29 -21 190 -39 190 -20 0 6 -22 11
-55 11 -94 0 -175 44 -167 92 2 9 -4 19 -13 22 -8 4 -15 1 -15 -6z"/>
<path d="M38 1982 c3 -219 5 -231 27 -212 12 10 14 24 9 57 -5 31 -2 50 10 68
20 31 21 49 1 41 -18 -6 -17 -10 -20 77 -3 72 9 137 28 149 6 4 9 10 5 13 -3
4 -16 0 -27 -7 -16 -10 -23 -10 -29 -1 -4 6 -6 -77 -4 -185z"/>
<path d="M1353 2153 c-18 -2 -33 -8 -33 -13 0 -5 -8 -11 -17 -13 -14 -4 -14
-5 3 -6 22 -1 94 25 94 34 0 3 -3 4 -7 3 -5 0 -23 -3 -40 -5z"/>
<path d="M2798 2149 c-12 -7 -18 -22 -18 -49 0 -22 -5 -40 -12 -43 -25 -8 68
-38 132 -43 36 -3 73 -7 83 -9 9 -2 17 2 17 9 0 7 -16 13 -37 14 -119 6 -153
14 -158 35 -16 67 -13 72 35 72 25 0 71 -3 103 -7 49 -6 57 -4 57 10 0 15 -14
17 -93 19 -51 2 -100 -2 -109 -8z"/>
<path d="M230 2104 c-14 -8 -18 -13 -10 -11 21 6 50 -11 50 -29 0 -9 6 -14 13
-11 13 5 11 35 -5 55 -13 15 -17 15 -48 -4z"/>
<path d="M313 2068 c-2 -5 17 -8 43 -8 26 0 44 3 40 8 -4 4 -24 7 -43 7 -19 0
-37 -3 -40 -7z"/>
<path d="M688 2019 c-7 -5 -8 -9 -3 -9 6 0 47 -3 92 -6 44 -4 94 -3 110 1 l28
8 -30 8 c-37 11 -178 9 -197 -2z"/>
<path d="M920 2011 c0 -12 37 -24 49 -17 5 4 11 2 13 -3 1 -4 12 -5 23 -1 18
7 18 9 -8 19 -34 13 -77 14 -77 2z"/>
<path d="M208 1960 c14 -25 23 -30 46 -28 38 4 44 23 9 26 -15 1 -31 9 -36 17
-4 8 -14 15 -22 15 -11 0 -11 -6 3 -30z"/>
<path d="M410 1952 c0 -14 -13 -13 -70 3 -20 6 -44 -10 -36 -24 8 -13 118 -13
156 -1 14 4 19 8 12 9 -7 1 -11 5 -8 10 3 5 -8 11 -24 13 -21 3 -30 0 -30 -10z"/>
<path d="M1498 1961 l-26 -6 22 -28 c21 -26 25 -27 52 -15 16 7 39 20 51 29
19 14 21 18 7 23 -19 7 -69 6 -106 -3z"/>
<path d="M1717 1935 c-22 -42 -91 -95 -131 -101 -12 -2 -36 -5 -54 -8 -23 -3
-35 0 -39 9 -9 25 -36 -11 -28 -37 6 -19 5 -21 -6 -10 -7 6 -26 12 -41 12 -15
0 -28 5 -28 11 0 5 -5 7 -11 3 -8 -5 -10 3 -7 24 3 24 2 29 -8 21 -9 -7 -14
-5 -17 8 -3 11 -5 7 -6 -11 -1 -27 -3 -28 -33 -23 -23 4 -11 -4 37 -27 71 -33
145 -52 145 -36 0 4 19 3 41 -3 37 -9 47 -7 85 13 23 13 41 27 38 31 -2 4 2
19 10 34 l14 27 18 -28 c11 -15 39 -48 64 -73 25 -26 33 -33 19 -16 -15 16
-34 45 -44 64 l-17 34 29 -21 c54 -40 83 -69 75 -77 -4 -5 -2 -5 5 -1 7 4 17
-2 23 -14 6 -11 16 -20 22 -20 6 0 19 -7 29 -16 17 -16 18 -15 6 10 -8 18 -17
24 -29 20 -12 -3 -18 0 -19 10 -1 9 -2 20 -3 25 0 5 -19 23 -41 40 -77 58 -88
68 -81 80 10 15 31 14 46 -4 15 -19 36 -18 75 1 l30 14 -28 -5 c-18 -4 -33 0
-43 10 -9 8 -27 15 -42 15 -21 0 -24 2 -12 10 13 8 13 10 -2 10 -9 0 -18 6
-21 13 -2 7 -11 -1 -20 -18z"/>
<path d="M116 1935 c-4 -11 2 -15 27 -15 30 1 31 1 13 15 -25 19 -32 19 -40 0z"/>
<path d="M1091 1881 c-1 -45 27 -138 54 -176 12 -16 24 -38 28 -47 3 -10 11
-18 17 -18 5 0 10 -6 10 -13 0 -7 9 -23 20 -35 11 -12 20 -26 20 -32 0 -5 5
-10 11 -10 5 0 8 -4 5 -9 -3 -5 1 -15 10 -22 14 -11 13 -15 -8 -32 -22 -17
-22 -18 -1 -8 34 17 39 14 72 -44 17 -30 33 -55 36 -55 11 0 -61 130 -126 227
-81 122 -127 210 -139 267 -8 41 -8 41 -9 7z"/>
<path d="M1015 1838 c-11 -6 -24 -17 -30 -24 -15 -18 -137 -94 -151 -94 -12 0
-29 -28 -26 -42 1 -5 -4 -8 -11 -8 -7 -1 -5 -6 6 -14 25 -19 57 -9 54 16 -1
11 7 25 18 32 11 6 24 17 28 24 4 6 17 12 27 12 19 0 38 16 94 78 30 33 27 40
-9 20z"/>
<path d="M2220 1812 c23 -48 71 -238 86 -345 22 -146 21 -303 0 -451 -10 -69
-13 -123 -8 -128 5 -5 9 -3 9 4 0 7 7 54 16 103 8 50 16 115 17 145 5 114 5
290 0 290 -4 0 -6 10 -7 23 -1 12 -4 33 -7 47 -4 14 -11 47 -16 73 -18 89 -61
216 -81 239 l-20 23 11 -23z"/>
<path d="M1141 1806 c-1 -17 88 -132 147 -189 48 -48 60 -55 66 -42 4 12 -3
24 -21 38 -42 34 -157 149 -175 177 -10 14 -17 21 -17 16z"/>
<path d="M120 1781 c0 -6 11 -11 24 -11 14 0 28 -5 32 -11 5 -8 26 -9 68 -4
33 5 91 9 128 9 63 1 65 2 41 15 -21 11 -36 11 -85 1 -54 -12 -133 -9 -185 6
-14 4 -23 2 -23 -5z"/>
<path d="M2735 1780 c-6 -9 52 -19 77 -12 10 2 18 8 18 12 0 10 -89 10 -95 0z"/>
<path d="M2870 1776 c0 -18 15 -23 52 -18 16 2 28 11 28 18 0 12 -4 12 -20 4
-14 -8 -26 -8 -40 0 -16 8 -20 8 -20 -4z"/>
<path d="M1650 1773 c0 -5 -9 -59 -20 -121 -14 -80 -17 -125 -11 -151 10 -45
-2 -78 -54 -157 -24 -36 -35 -64 -35 -89 0 -32 -3 -36 -22 -33 -15 2 -24 11
-26 26 -2 12 -9 22 -16 22 -7 0 -27 16 -44 36 -35 39 -43 70 -16 60 13 -5 15
-2 11 14 -4 17 -2 20 14 15 11 -4 19 -2 19 4 0 6 5 11 11 11 6 0 9 -9 6 -20
-4 -17 -2 -20 14 -15 21 7 25 -10 9 -35 -8 -12 -13 -13 -30 -2 -11 6 -23 12
-27 12 -12 0 50 -49 62 -50 6 0 16 19 23 43 l14 42 -38 33 c-21 18 -45 31 -53
30 -8 -2 -28 -22 -44 -44 l-29 -41 22 -44 c41 -80 72 -119 94 -119 39 -1 59
-26 64 -81 4 -42 16 -69 58 -133 30 -44 54 -85 54 -90 0 -8 20 -41 57 -95 2
-2 6 -1 9 2 4 4 -5 22 -20 42 -15 19 -35 59 -45 88 -10 28 -32 80 -50 115 -38
74 -65 175 -58 211 3 14 31 79 62 143 l56 117 -6 121 c-5 98 -3 120 7 114 10
-6 9 -3 -1 9 -15 18 -21 21 -21 10z"/>
<path d="M1483 1717 c-18 -12 -33 -25 -33 -29 0 -13 46 13 58 33 15 23 15 23
-25 -4z"/>
<path d="M951 1687 c-12 -16 -5 -47 11 -47 6 0 7 -12 4 -27 -5 -21 -4 -24 4
-13 11 16 11 17 14 -40 2 -27 22 -68 29 -60 3 3 -4 32 -14 65 -11 33 -22 76
-25 95 -7 43 -8 44 -23 27z"/>
<path d="M1837 1686 c-4 -10 13 -23 50 -43 54 -27 58 -31 87 -105 17 -43 34
-78 38 -78 11 0 -34 114 -58 146 -13 17 -20 35 -16 39 4 5 1 5 -5 1 -12 -7
-22 -1 -64 37 -23 21 -25 21 -32 3z"/>
<path d="M896 1678 c-3 -7 -4 -20 -3 -30 1 -26 27 -9 27 18 0 25 -18 33 -24
12z"/>
<path d="M104 1658 c11 -37 13 -42 21 -70 4 -16 11 -28 16 -28 11 0 11 7 0 47
-6 20 -6 35 0 38 19 13 9 35 -17 35 -23 0 -25 -3 -20 -22z"/>
<path d="M2706 1624 c-3 -7 13 -10 42 -10 26 1 48 5 50 10 3 13 -87 13 -92 0z"/>
<path d="M755 1600 c-22 -11 -31 -17 -20 -14 48 15 55 16 55 5 0 -6 -6 -11
-12 -11 -10 -1 79 -40 90 -40 1 0 2 5 2 10 0 6 -5 10 -11 10 -7 0 -18 8 -25
18 -7 9 -17 18 -23 18 -24 3 -25 6 -6 14 13 6 15 9 5 9 -8 0 -33 -8 -55 -19z"/>
<path d="M2056 1542 c-9 -26 13 -62 36 -62 28 0 21 17 -9 25 -19 4 -23 9 -14
14 10 6 11 14 3 26 -9 17 -10 17 -16 -3z"/>
<path d="M880 1542 c0 -5 8 -17 19 -26 16 -15 19 -15 24 -1 4 9 1 15 -8 15 -8
0 -15 5 -15 10 0 6 -4 10 -10 10 -5 0 -10 -4 -10 -8z"/>
<path d="M1806 1528 c6 -29 -18 -78 -55 -112 -11 -10 -18 -23 -15 -30 2 -6 20
-76 39 -154 31 -130 33 -148 23 -196 -14 -65 2 -154 32 -181 11 -10 20 -30 20
-44 0 -23 -19 -106 -31 -136 -2 -5 0 -12 5 -15 5 -3 11 5 13 18 1 13 10 36 18
51 8 16 11 31 8 35 -4 3 -1 6 5 6 7 0 12 5 12 11 0 5 -3 8 -7 6 -5 -3 -9 9 -9
26 -1 18 -12 77 -23 132 -14 63 -20 116 -16 142 4 24 1 51 -5 63 -6 11 -13 37
-16 58 -2 20 -12 63 -20 94 -19 66 -12 110 11 68 20 -39 45 -143 40 -169 -2
-13 2 -38 9 -56 18 -43 54 -260 51 -310 -1 -22 2 -47 6 -56 5 -10 9 -49 10
-89 2 -87 15 -74 18 17 1 36 2 68 3 72 4 31 -4 81 -12 76 -5 -3 -10 1 -10 10
0 9 4 14 9 11 5 -4 7 3 4 14 -3 11 -9 23 -14 26 -5 3 -8 17 -8 32 1 21 2 22 6
7 3 -11 9 -24 13 -29 8 -8 -6 70 -15 84 -3 4 -7 29 -10 56 -12 106 -37 241
-51 279 -9 22 -15 40 -14 40 6 0 -14 142 -21 155 -6 10 -7 6 -3 -12z"/>
<path d="M232 1505 c-25 -32 -35 -85 -22 -119 13 -36 13 -36 -12 -36 -15 0
-19 -3 -11 -11 5 -5 22 -7 36 -4 24 6 24 8 11 33 -41 80 28 194 79 131 15 -18
18 -34 13 -74 -8 -74 -6 -155 4 -195 9 -34 13 -94 11 -156 -1 -30 -2 -31 -108
-58 -97 -25 -213 -66 -143 -51 14 3 41 8 60 11 19 3 44 9 55 14 25 11 117 40
124 40 4 0 5 -21 4 -47 -2 -36 -1 -43 6 -28 5 11 10 39 10 63 1 23 4 42 9 42
4 0 6 19 4 41 l-4 42 23 -17 c31 -21 47 -21 20 2 -11 9 -22 28 -23 42 -2 14
-9 30 -17 36 -10 8 -14 32 -14 80 0 38 -3 71 -8 74 -5 3 -4 23 2 44 19 67 -10
126 -62 126 -17 0 -35 -9 -47 -25z"/>
<path d="M1715 1510 c-3 -5 -2 -10 3 -10 5 0 12 -10 15 -22 4 -12 9 -19 13
-16 9 9 -4 58 -16 58 -5 0 -12 -4 -15 -10z"/>
<path d="M124 1499 c-12 -20 -16 -177 -5 -184 6 -3 11 2 11 13 0 10 3 22 8 26
9 10 9 156 0 156 -4 0 -10 -5 -14 -11z"/>
<path d="M1037 1484 c-3 -4 1 -13 9 -21 27 -28 3 -33 -40 -8 -24 14 -49 25
-57 25 -8 -1 -1 -8 15 -17 16 -8 41 -26 55 -39 24 -22 27 -23 51 -7 33 21 70
55 70 64 0 4 -14 3 -31 -3 -22 -8 -34 -7 -42 1 -12 12 -21 14 -30 5z"/>
<path d="M1191 1453 c-7 -8 -22 -12 -32 -10 -11 3 -22 1 -25 -4 -3 -5 8 -9 25
-9 16 0 33 5 36 10 4 6 10 8 15 5 5 -3 11 -1 14 4 10 16 -18 19 -33 4z"/>
<path d="M1680 1450 c0 -5 -7 -10 -15 -10 -21 0 -18 -12 11 -39 27 -26 52 -17
40 14 -8 21 -27 9 -20 -13 5 -15 4 -15 -6 1 -6 9 -8 26 -5 37 4 11 4 20 1 20
-3 0 -6 -4 -6 -10z"/>
<path d="M2025 1388 c9 -42 13 -45 28 -27 11 12 9 18 -11 37 l-24 23 7 -33z"/>
<path d="M1030 1383 c0 -5 9 -19 21 -33 49 -61 89 -130 112 -190 13 -36 37
-90 52 -120 16 -30 38 -86 51 -125 21 -64 23 -66 18 -25 -4 41 2 31 63 -91 37
-75 74 -152 82 -170 27 -64 144 -299 148 -296 3 3 -13 38 -105 237 -14 30 -38
87 -54 125 -112 272 -279 593 -347 668 -24 26 -41 35 -41 20z"/>
<path d="M2520 1382 c0 -5 7 -16 16 -23 9 -7 20 -23 25 -36 5 -15 14 -21 24
-17 19 8 19 23 0 30 -8 4 -15 10 -15 15 0 5 10 5 23 0 12 -5 32 -5 45 0 16 6
22 5 22 -5 0 -8 -4 -16 -9 -18 -13 -5 -25 -88 -13 -88 6 0 14 15 17 33 4 17
11 40 16 49 12 22 39 12 39 -13 0 -15 6 -17 28 -13 15 2 59 1 97 -5 39 -5 74
-5 79 -1 4 5 -18 11 -50 15 -115 14 -139 20 -139 35 0 9 7 14 18 12 9 -2 17 1
17 6 0 5 -15 9 -32 10 -89 3 -167 10 -186 16 -12 4 -22 3 -22 -2z"/>
<path d="M2937 1384 c-3 -3 -3 -12 -1 -19 4 -8 -4 -15 -18 -18 -13 -2 -5 -4
18 -3 36 1 40 3 36 24 -4 21 -22 29 -35 16z"/>
<path d="M1619 1347 c-32 -24 -44 -67 -19 -67 9 0 45 68 40 74 -3 2 -12 -1
-21 -7z"/>
<path d="M2432 1348 c-7 -7 -12 -23 -12 -36 0 -20 3 -22 14 -13 17 14 27 49
17 56 -4 2 -13 -1 -19 -7z"/>
<path d="M2041 1330 c0 -8 11 -62 24 -120 23 -98 27 -82 10 33 -6 41 -33 112
-34 87z"/>
<path d="M597 1303 c9 -16 37 -60 62 -98 25 -39 71 -119 101 -178 54 -104 77
-134 61 -79 -12 40 -41 105 -49 112 -4 3 -47 65 -95 138 -48 72 -90 132 -93
132 -2 0 3 -12 13 -27z"/>
<path d="M208 1297 c3 -12 10 -16 21 -12 9 4 28 9 44 12 47 10 38 19 -17 19
-46 -1 -52 -3 -48 -19z"/>
<path d="M2990 1301 c0 -5 -14 -7 -32 -4 -27 4 -30 3 -20 -10 15 -17 62 -11
62 9 0 8 -2 14 -5 14 -3 0 -5 -4 -5 -9z"/>
<path d="M2590 1267 c0 -2 7 -18 15 -33 23 -45 18 -79 -16 -119 -17 -19 -35
-32 -40 -29 -5 3 -9 -2 -9 -10 0 -10 -6 -13 -17 -10 -14 5 -15 4 -4 -4 10 -7
20 -7 32 1 34 21 33 -3 -1 -38 -18 -19 -31 -38 -27 -42 4 -3 8 -4 10 -2 89
112 113 168 98 226 -6 23 -18 46 -26 53 -8 7 -15 10 -15 7z"/>
<path d="M2670 1221 c-8 -16 -6 -23 8 -33 11 -7 27 -29 37 -48 25 -51 64 -100
78 -99 9 0 9 2 0 6 -7 2 -13 11 -13 18 0 7 -6 15 -14 18 -17 7 -61 96 -52 105
4 3 35 5 68 4 34 -2 60 -1 58 2 -5 4 -82 15 -117 15 -14 1 -23 7 -23 16 0 21
-17 19 -30 -4z"/>
<path d="M1617 1203 c35 -7 42 -53 8 -53 -8 0 -19 8 -25 18 -10 16 -10 15 -8
-3 4 -25 31 -31 58 -12 18 12 18 15 4 35 -8 12 -25 21 -37 21 l-22 -2 22 -4z"/>
<path d="M2860 1191 c0 -10 89 -25 98 -17 9 10 -1 13 -50 19 -27 3 -48 2 -48
-2z"/>
<path d="M2190 1105 c-30 -29 -58 -51 -61 -49 -4 2 -10 -2 -12 -8 -4 -10 -8
-9 -16 2 -9 12 -11 9 -11 -13 l0 -29 32 20 c43 27 138 112 138 123 0 17 -15 7
-70 -46z"/>
<path d="M2652 1112 c-19 -43 -94 -166 -106 -174 -7 -5 -8 -8 0 -8 11 0 74 84
74 99 0 5 3 11 8 13 13 6 52 67 52 83 0 24 -14 18 -28 -13z"/>
<path d="M1474 1103 c2 -13 0 -23 -5 -23 -6 0 -5 -5 1 -12 5 -7 19 -24 30 -38
l20 -25 -9 25 c-17 47 -42 95 -37 73z"/>
<path d="M2800 1025 c0 -20 80 -129 106 -146 19 -11 34 -24 34 -28 0 -4 -24
-12 -54 -18 -50 -11 -110 -45 -189 -110 -46 -37 -15 -27 51 17 33 22 64 40 70
40 5 0 12 7 16 15 3 8 18 15 34 15 15 0 33 5 39 11 8 8 15 5 26 -11 8 -12 27
-28 41 -35 22 -12 26 -12 26 1 0 8 -8 18 -17 21 -23 8 -33 23 -33 49 0 11 -18
39 -40 62 -26 26 -38 46 -34 56 4 10 1 16 -10 16 -8 0 -20 8 -25 19 -9 16 -41
37 -41 26z"/>
<path d="M2118 1008 c-19 -6 -28 -17 -28 -31 0 -18 1 -19 13 -5 6 9 26 23 42
32 33 17 15 20 -27 4z"/>
<path d="M1524 988 c3 -10 -2 -22 -12 -27 -16 -10 -16 -10 1 -11 10 0 17 -6
16 -12 -3 -25 1 -39 10 -34 5 4 12 0 15 -6 3 -7 4 0 1 16 -4 16 -13 43 -21 60
-8 17 -12 23 -10 14z"/>
<path d="M2721 981 c-23 -18 -23 -18 -2 -24 11 -3 24 -1 27 4 3 5 11 6 17 2 7
-4 5 2 -3 13 -8 10 -15 20 -15 21 0 1 -11 -6 -24 -16z"/>
<path d="M263 962 c-7 -4 -9 -12 -5 -17 12 -18 31 -15 42 5 9 17 8 20 -7 20
-10 0 -23 -4 -30 -8z"/>
<path d="M120 924 c-41 -14 -75 -26 -77 -27 -1 -2 2 -9 7 -16 6 -11 14 -10 43
8 40 25 47 26 47 7 0 -8 7 -16 15 -20 8 -3 14 -2 14 2 -8 51 19 68 32 21 6
-19 7 -20 8 -5 1 11 8 28 18 38 15 17 15 18 -8 17 -13 -1 -58 -12 -99 -25z"/>
<path d="M2767 897 c-21 -13 -35 -26 -31 -30 4 -4 0 -7 -8 -7 -9 0 -21 -7 -29
-16 -9 -11 5 -7 45 10 32 14 67 26 78 26 14 0 18 5 14 16 -3 9 -6 18 -6 20 0
10 -28 2 -63 -19z"/>
<path d="M2271 840 c-7 -25 -23 -78 -35 -119 l-24 -73 38 -82 c43 -91 111
-285 160 -453 18 -62 37 -113 43 -113 12 0 2 55 -25 138 -11 34 -21 68 -22 75
-1 6 -12 41 -24 77 -53 162 -95 273 -128 332 -16 30 -19 84 -4 93 6 3 10 15
10 25 0 11 9 36 20 56 16 28 19 42 12 63 -9 25 -10 25 -21 -19z"/>
<path d="M1599 807 c6 -16 11 -41 11 -56 0 -15 11 -49 24 -77 18 -39 51 -140
60 -187 1 -5 10 0 19 11 17 19 17 21 -8 48 -15 16 -22 30 -16 32 14 5 14 25
-1 40 -6 6 -13 22 -15 34 -2 12 -10 29 -18 38 -8 9 -19 38 -24 64 -5 27 -16
55 -25 65 -16 15 -16 14 -7 -12z"/>
<path d="M1765 772 c-4 -20 -1 -41 9 -59 8 -15 15 -24 16 -20 0 5 -5 17 -10
28 -8 13 -7 25 1 40 7 14 7 25 1 31 -7 7 -12 0 -17 -20z"/>
<path d="M2845 767 c-60 -24 -70 -33 -56 -51 7 -9 25 -15 40 -15 25 1 25 2 -4
8 l-30 8 28 13 c15 7 27 17 27 21 0 4 22 1 50 -6 55 -14 73 -5 38 19 -26 19
-51 19 -93 3z"/>
<path d="M1692 680 c14 -25 33 -46 41 -48 27 -5 13 24 -28 59 l-39 34 26 -45z"/>
<path d="M480 668 c0 -16 117 -84 127 -75 3 3 -10 13 -28 21 -19 8 -49 27 -66
42 -24 19 -33 22 -33 12z"/>
<path d="M2710 640 c-11 -22 -17 -40 -12 -40 16 0 64 58 58 69 -13 20 -25 12
-46 -29z"/>
<path d="M219 615 c-3 -25 -8 -30 -28 -27 -13 1 -39 -6 -56 -17 -20 -12 -36
-16 -42 -10 -6 6 -14 0 -21 -16 -6 -14 -10 -25 -8 -25 6 0 181 62 215 76 27
11 32 17 22 24 -9 5 -23 3 -38 -7 -21 -14 -23 -14 -32 8 -9 23 -9 23 -12 -6z"/>
<path d="M2185 616 c-3 -9 -8 -24 -12 -33 -3 -10 -7 -23 -8 -28 -2 -6 -12 -32
-24 -57 -21 -47 -29 -90 -12 -72 14 15 74 194 68 201 -4 3 -9 -2 -12 -11z"/>
<path d="M2853 618 c2 -7 9 -12 15 -11 5 1 24 -2 41 -7 37 -10 41 2 6 18 -34
16 -68 15 -62 0z"/>
<path d="M331 600 c-1 -29 31 -156 47 -186 6 -12 24 -86 41 -165 41 -200 53
-249 62 -249 4 0 -2 39 -13 88 -11 48 -22 107 -24 132 -9 100 -13 117 -32 160
-19 45 -33 95 -37 135 -3 35 -17 75 -25 75 -5 0 -11 8 -13 18 -3 11 -5 9 -6
-8z"/>
<path d="M866 604 c-7 -17 -131 -20 -141 -3 -5 7 -11 5 -18 -5 -7 -8 -23 -17
-37 -19 -14 -2 16 -5 65 -5 65 -1 102 4 134 17 37 15 41 19 23 23 -13 4 -23 0
-26 -8z"/>
<path d="M901 556 c-17 -20 -8 -32 28 -39 46 -10 81 -78 90 -175 5 -59 12 -85
29 -106 14 -19 22 -42 22 -68 0 -31 6 -45 25 -60 14 -11 37 -41 51 -66 24 -45
25 -46 20 -14 -3 18 -21 52 -39 75 -18 23 -39 64 -46 92 -7 27 -19 57 -27 66
-9 10 -16 39 -17 70 -3 68 -53 189 -79 189 -10 0 -23 12 -31 26 -12 22 -15 24
-26 10z"/>
<path d="M13 533 c-7 -2 -13 -11 -13 -20 0 -10 6 -12 23 -7 28 8 30 10 22 23
-7 12 -13 12 -32 4z"/>
<path d="M1778 519 c-26 -41 -58 -108 -57 -121 0 -7 5 -2 11 12 7 16 12 20 15
12 3 -8 0 -24 -7 -37 -8 -15 -9 -28 -3 -40 9 -15 11 -14 17 9 6 23 9 25 27 15
11 -6 23 -9 25 -6 2 2 -8 10 -22 17 -29 16 -28 42 2 105 20 42 14 67 -8 34z"/>
<path d="M2657 473 c-8 -12 31 -46 76 -67 20 -9 37 -21 37 -26 0 -14 -42 -50
-59 -50 -20 -1 -71 -39 -52 -40 25 0 161 71 161 84 0 19 -20 33 -71 51 -24 9
-53 25 -65 36 -12 11 -24 17 -27 12z"/>
<path d="M861 462 c-6 -2 -9 -7 -6 -11 2 -5 -14 -14 -36 -20 -59 -18 -43 -22
30 -9 52 10 64 10 72 -3 7 -11 9 -11 9 4 0 9 5 17 11 17 5 0 8 4 5 9 -6 10
-67 19 -85 13z"/>
<path d="M2940 351 c0 -5 6 -14 14 -20 16 -13 32 2 21 19 -8 12 -35 13 -35 1z"/>
<path d="M2141 325 c0 -5 6 -32 14 -60 9 -27 18 -64 21 -80 2 -17 9 -44 14
-60 8 -23 9 -13 4 40 -3 43 -14 89 -29 120 -13 28 -24 46 -24 40z"/>
<path d="M2746 284 c-9 -22 -8 -26 5 -19 5 4 19 -1 30 -11 25 -22 50 -27 42
-8 -3 8 -9 14 -13 14 -4 0 -10 9 -13 20 -6 24 -42 27 -51 4z"/>
<path d="M2240 67 c9 -7 25 -25 38 -41 12 -16 22 -24 22 -18 0 16 -50 72 -63
72 -7 -1 -6 -6 3 -13z"/>
<path d="M2744 47 c-12 -7 -19 -18 -17 -24 4 -10 11 -9 33 2 41 21 113 19 162
-5 48 -23 52 -24 42 -9 -24 40 -172 64 -220 36z"/>
</g>
</svg>
